<?xml version="1.0" encoding="utf-8"?>
<!-- Generator: Adobe Illustrator 21.1.0, SVG Export Plug-In . SVG Version: 6.00 Build 0)  -->
<svg version="1.1" id="_x30_" xmlns="http://www.w3.org/2000/svg" xmlns:xlink="http://www.w3.org/1999/xlink" x="0px" y="0px"
	 viewBox="0 0 593.2 452.2" style="enable-background:new 0 0 593.2 452.2;" xml:space="preserve">
<style type="text/css">
	.st0{stroke:#D3D3D3;stroke-width:0.25;stroke-miterlimit:10;}
</style>
<g id="아현동">
	<polygon class="st0" points="538,265.9 535,269.2 534.6,269.6 534,271 533.4,272.6 533.3,273 533.3,275.6 530.7,279.3 530.6,279.4 
		528.9,283.6 527.9,286.2 527.2,287.9 527.2,288 526.2,290.7 526.1,290.8 525.4,292.7 525.4,292.7 525.4,292.7 525.4,292.7 
		525.3,293 525.1,293.4 524.7,294.4 524.6,294.6 524,296.1 523.7,296.7 523.1,298.4 522.1,301.1 521.2,303.2 520.8,304 520.7,304.3 
		520.4,305 519.7,307 519.6,307.2 518.8,309.2 517.6,312.6 517.4,313 517.2,313.4 515.3,317.4 514.1,320.4 514.1,320.6 513.8,321.3 
		512.8,323 512.1,324.3 509.6,328.4 509.5,328.6 508.2,331 506.2,334.3 505.8,335.1 505.2,336.2 504.4,335.8 502.4,339 498.1,346.2 
		496.3,349.1 497.2,349.9 497,350.1 492.4,347.4 492,347.2 491.7,347 487.2,344.4 486.4,344 484.4,342.8 482,341.5 479.7,340.2 
		479.6,340.1 481.1,337.8 482,337.7 482.7,337.6 482.7,337.5 482.9,337.3 483.5,336.2 484,336.4 484.6,335.5 485.1,334.5 485.4,334 
		485.7,333.5 486.3,333.9 487.4,332.1 488.3,330.5 488.8,329.5 490,327.4 490.2,326.8 490.3,326.8 492,325.1 493.3,323.9 
		493.8,323.2 493,319 493,318.8 492.9,318.2 492.7,317.4 492.4,316.7 492,315.7 491.9,315.7 491.3,313.7 490.9,312.4 490.2,310.7 
		491.2,307.4 491.4,306.6 491.5,306.2 491.6,305.5 491.7,304.5 493.9,303 494,302.9 495,301.2 495.1,301 495.2,300.9 495.9,299.6 
		496.2,298.4 496.2,298.3 496.3,298 496.4,297.3 496.5,297 496.6,296.3 496.6,295.4 496.9,294.3 496.9,293.7 497,293.4 497.1,291.9 
		497.2,290.3 497.3,289.3 496.9,287.6 496.6,286.5 496.5,286.4 496.5,286.3 496.1,283.4 496,282.9 494.1,283.4 494.1,282.6 
		494,282.3 493.8,281.8 493.8,281.8 494.2,281.7 495.3,281.3 495.6,281.2 495.4,280.7 495.4,280.7 495.2,280.8 495,280.4 
		494.9,280.4 494.9,280.5 494.8,280.5 494.7,280.4 494.6,280.1 494.6,280.1 494.5,280.1 494.3,279.5 493.8,279.7 493.6,279.6 
		493.6,279.5 493.5,279.2 493.4,279.3 493.1,279.3 492.9,278.8 492.7,278.9 492.7,278.9 492.7,278.9 492.4,278.4 492.7,278.4 
		492,276.3 492.4,276.2 491.8,274.1 491.3,273.8 490.8,273.5 490.6,273.4 490.1,273.3 489.7,273.3 489.7,273.1 489.7,273 488.7,273 
		487.8,273.7 487.7,273.7 487.2,272.9 486.6,271.3 486.6,269.2 486.6,269.2 486.5,268.2 486.5,267.3 486.3,267.2 486.3,267.2 
		486.3,266.8 486.3,266.3 488,266.3 488,265.5 488.1,265.5 488.2,265.4 488.3,265.3 488.3,265.3 488.3,265.2 488.2,263.9 
		488.8,263.9 493.2,263.5 493.3,263.5 493.3,263.5 498.8,263.2 498.9,263.2 499,263.2 503.9,262.9 504.1,262.9 504.2,262.9 
		510.2,262.3 510.3,262.3 510.3,262.3 510.4,262.3 510.4,262.3 510.4,262.3 515.8,261.8 516.5,261.8 516.5,261.8 519.2,261.6 
		519.2,261 520.8,260.9 525.3,260.8 525.5,260.8 528.6,260.7 529.7,260.7 529.9,261.4 536.9,262.2 537.4,262.3 537.8,263.2 	"/>
</g>
<g id="공덕동">
	<polygon class="st0" points="552.1,252 552.5,253.1 552.7,254.2 552.7,254.4 552.7,254.5 553.2,254.6 555,254.5 555.8,254.9 
		556.5,255.4 557.1,255.8 557.4,256 557.5,256 557.7,256.2 558.7,256.9 559.9,256.2 559.9,257.7 559.9,258.3 559.9,259.8 
		559.9,259.9 559.9,260 560,260.8 559.3,261.8 559.3,261.9 560.8,262.8 560.2,267.4 559.2,268.8 559.1,268.8 558.2,269.7 
		558.2,269.8 558.1,269.8 557.7,270.1 556.8,270.8 556.6,272 555.5,273.1 554.9,274.4 554.6,274.2 553.9,273.9 553.2,274.3 
		553.7,277.1 554.4,280.7 555,281 555.4,281.8 554.4,282.2 554,282.2 553.2,284 552.9,287 553.1,287.4 553.4,293.2 553.4,293.3 
		553.8,293.7 554.4,294.4 555,295 555.2,295.7 555.3,296 555.6,296.5 556.6,298.6 556.7,299.6 558,301 558.4,301.4 558.5,301.4 
		559,302.1 559.7,302.9 560.1,303.5 560.3,303.9 560.4,304 560.8,304.9 560.9,305.3 561.2,305.7 561.7,306 561.7,306.3 561.9,306.6 
		562.1,306.8 562.1,307 562.1,307.2 562.1,307.3 562.1,307.3 562,307.5 562.1,307.6 562.6,307.9 562.6,308 563,308.2 563.2,308.5 
		564.2,309.7 564.4,310.1 564.5,310.1 564.3,310.5 564,310.4 563.6,312 563.4,312.9 563.3,313.6 563.3,314.5 563.5,315.2 
		563.2,315.4 563.2,315.8 563,316.1 562.8,316.1 562.7,316.3 562,316.3 562,316.6 562,316.6 560.7,316.6 560.6,316.6 560.6,316.7 
		559.9,316.7 559.9,316.3 559.3,316.3 559.3,315.6 558.3,315.6 558.1,315.6 557.3,315.6 557.2,315.6 556.8,315.6 556.7,315.8 
		556.7,316.5 556.7,316.7 554.4,316.7 554.3,316.8 554.3,318 554.5,318.6 553.3,319 553.2,319 553.2,319.2 553.3,319.5 553.3,320 
		554.1,320.9 554.6,321.6 554.6,321.7 554.6,321.7 554.5,322.3 553.6,322.5 553.4,322.5 553.6,323.5 552.8,323.8 552.7,323.6 
		552.6,322.8 551.8,322.9 551.8,322.8 551.3,322.8 550.4,323.1 550,323.1 550,323.7 549.9,323.8 549.5,323.9 548.1,324.5 
		547.9,324.6 547.7,324.7 547.8,325.2 548,325.4 548,325.4 548,325.5 548.9,326 548.7,326.4 548.4,327 548.3,327 548.2,327 548,327 
		547.6,327 547.6,327.6 547.6,327.6 547.1,327.6 547,327.6 546.9,328.2 546.9,328.8 546.9,329.2 546.2,329.3 546.2,329.7 
		545.7,329.7 545.7,329.9 545.3,330 545.3,330.5 545.6,331.6 544.3,332.5 542.4,333.7 541,334.3 540.3,334.6 539.6,334.9 
		537.6,336.2 536.9,337 535.7,336.5 535.2,336.4 535,337.1 533.8,336.9 533.6,337.3 533.8,337.5 534.2,337.7 534,338.2 533.5,337.9 
		533.3,338.6 533.3,338.6 533.1,339.3 533.1,339.4 533.6,339.6 534.7,340 534,341.6 533.7,342.2 533.3,343.2 532.7,344.8 
		532.5,345.4 532.4,346.8 532.4,346.9 532.4,347.2 532.4,347.9 531.8,348.5 531.9,348.5 532.2,348.9 531.7,349.4 531.9,349.6 
		532.2,349.7 532,350.1 531.7,349.8 531.7,349.8 531.4,350.1 531.3,350.2 531.6,350.5 531.4,350.8 531.8,351.1 531.3,351.8 
		532.8,352.9 532.9,352.9 532.9,353 533.1,353.1 533.4,353.3 533.6,353 533.8,353.1 534.1,353.1 534.2,353.1 535.1,353.4 
		535.2,353.5 535.3,353.8 535.7,354 536,354.3 535.7,354.7 535.4,355.1 535.4,355.1 535.3,355.3 533.7,357.2 533.7,357.2 
		533.1,358.1 532.9,358.4 532.9,358.5 532.8,358.5 532.7,358.6 532,359.2 531.8,359.4 531.4,359.7 530.2,360.4 529.9,360.9 
		529.4,361.6 529.4,361.9 529.3,363 529.3,363.7 529,364 529,364.1 528.5,365 528.3,365.6 528,366 527.9,366.1 527.9,366.1 
		526.9,367.2 526.7,367.4 526.3,368 525.4,367.2 524,366.5 523.8,366.4 522.7,365.8 521.7,365.1 520.7,364.4 520.2,364.1 
		520.1,364.1 519.7,363.8 519.5,363.6 519.2,363.4 518.7,363.1 518.6,363.1 518.6,363 517.9,362.6 517.9,362.6 517.9,362.6 
		517.6,362.4 516,361.4 514.8,360.6 513.4,359.8 513,359.6 512.9,359.5 509.2,357.3 508.8,357 505.9,355.4 505.7,354.7 503.5,353.5 
		503.4,353.4 503.4,353.4 503.4,353.4 502.9,353.1 500.6,351.8 497.5,350.1 497.2,349.9 496.3,349.1 498.1,346.2 502.4,339 
		504.4,335.8 505.2,336.2 505.8,335.1 506.2,334.3 508.2,331 509.5,328.6 509.6,328.4 512.1,324.3 512.8,323 513.8,321.3 
		514.1,320.6 514.1,320.4 515.3,317.4 517.2,313.4 517.4,313 517.6,312.6 518.8,309.2 519.6,307.2 519.7,307 520.4,305 520.7,304.3 
		520.8,304 521.2,303.2 522.1,301.1 523.1,298.4 523.7,296.7 524,296.1 524.6,294.6 524.7,294.4 525.1,293.4 525.3,293 525.4,292.7 
		525.4,292.7 525.4,292.7 525.4,292.7 526.1,290.8 526.2,290.7 527.2,288 527.2,287.9 527.9,286.2 528.9,283.6 530.6,279.4 
		530.7,279.3 533.3,275.6 533.3,273 533.4,272.6 534,271 534.6,269.6 535,269.2 538,265.9 538.6,265.3 540,263.8 540.2,263.6 
		541.8,261.9 545.5,258.2 546.2,257.5 546.3,257.4 547.4,256.2 548.6,255.1 550.3,253.5 550.9,252.9 551.3,252.5 	"/>
</g>
<g id="서강동">
	<polygon class="st0" points="411.7,288.4 410.6,289.6 410.5,289.7 410.2,290 409.5,290.9 409.4,291.3 408.8,293.1 408.8,293.3 
		408.4,294.7 408.1,296.3 407.8,298.3 407.8,298.4 407.8,298.7 407.8,307.8 407.8,308.2 407.5,312.4 407.4,313 407.1,315.4 
		406.5,319.8 406.3,321.1 406.1,322.6 406.1,323.3 406.2,324.1 406.2,324.2 406.1,324.3 405.4,326.9 404.5,329.9 404.2,330.7 
		403.3,333.9 402.6,336.6 402.5,336.9 402.5,336.9 400.2,339 400.2,339 399.9,339.3 396.9,340.3 396.7,340.5 396.5,340.5 
		396.3,340.7 396,340.9 394.9,341.2 394,341.4 393.5,341.7 393.3,342.1 392.7,343.1 391.7,345.1 391.4,345.7 389.6,349.1 
		387.3,353.2 375.2,375.7 369.9,385.4 360.1,382.5 357.8,381.9 357.4,381.8 356.1,381.4 355.1,381.2 351.9,380.3 314.5,370.5 
		322.3,355.7 324.7,351.2 325.6,349.6 326.9,348.4 327.1,348 329,345.3 329.2,344 330.4,342.1 330.4,341 331.2,340.6 332,341.6 
		332.3,342.6 333.2,342.3 335,339.6 335.1,338.5 335.4,338.1 335.6,337.4 335.7,337.2 335.7,337.1 335.7,337.1 336.7,335 
		336.8,334.8 337.2,333.8 337.3,333.5 337.7,332.5 338.4,330.9 339.3,328.7 339.3,328.6 340.5,325.9 340.7,325.1 341.6,322.8 
		342.4,321.7 342.5,321.7 342.6,321.4 342.8,321.2 343.8,318.8 344,318.3 344.1,318.2 345.1,317.8 345.2,317.8 346.7,317.2 
		347.5,316.9 348.1,316.3 349.1,315.4 350.5,314.5 351.7,313.8 352.6,312.6 353.4,311.6 353.5,311.5 354.4,310.8 356.8,308.8 
		357.1,308.6 357.8,308.1 357.8,307.1 357.8,307 357.8,306.6 359.3,305.4 360.2,304.9 360.8,304.7 361.3,304.4 361.6,304.3 
		361.9,304 362.2,303.4 362.2,303.3 362.2,303.2 362.2,303.1 362.3,302.8 362.4,302.6 362.6,302.5 363.4,302.2 363.7,302.2 
		363.8,301 363.7,300.6 363.7,298.7 363.6,298.2 363.1,296.5 363,296.1 363,295.6 362.9,295.2 362.9,294.7 363,293.9 363.2,293.7 
		363.6,292.9 363.9,292.7 364.7,292.2 367.5,289.8 368.4,288.6 367.8,287.9 370.2,286.9 372.3,287.1 373.8,287.2 374.6,287.3 
		376,287.4 379.2,286.5 380,286.3 382.3,285.6 384.1,285 384.2,285 384.6,284.9 386.1,284.4 387.1,283.6 387.1,283.6 389.3,281.8 
		389.4,281.8 391.7,279.9 391.7,279.9 392.8,279 393,278.6 393.5,277.8 393.5,277.7 393.6,277.6 393.8,277.6 394.6,277.8 
		395.5,277.9 399.1,278.4 401.7,278.2 401.8,278.2 402.4,278.7 402.5,278.7 405.5,281.1 405.5,281.2 411.6,286.6 411.1,287.3 	"/>
</g>
<g id="도화동">
	<polygon class="st0" points="497.5,350.1 500.6,351.8 502.9,353.1 503.4,353.4 503.4,353.4 503.4,353.4 503.5,353.5 505.7,354.7 
		505.9,355.4 508.8,357 509.2,357.3 512.9,359.5 513,359.6 513.4,359.8 514.8,360.6 516,361.4 517.6,362.4 517.9,362.6 517.9,362.6 
		517.9,362.6 518.6,363 518.6,363.1 518.7,363.1 519.2,363.4 519.5,363.6 519.7,363.8 520.1,364.1 520.2,364.1 520.7,364.4 
		521.7,365.1 522.7,365.8 523.8,366.4 524,366.5 525.4,367.2 526.3,368 526.6,369.3 526.5,369.4 524.9,370.6 523.8,372.6 
		522.9,374.1 522.9,374.1 522.3,375 520.4,376.1 520,376.4 519.1,376.6 518.6,376.7 517.3,377 517,377.3 516.1,378.1 514.4,379.5 
		514.2,379.6 513.4,381.2 513.4,381.2 512.5,382.9 509.5,381.6 509.1,381.4 509.2,382.8 509.4,384 509.4,385.1 509.1,385.3 
		509.1,385.6 509.2,386.4 509.1,387 509,387.4 509,387.4 509,388 508.9,388.1 508.2,388.9 507.7,389.1 507.3,389.3 506.9,389.7 
		506.6,390.4 505.9,391.2 505.2,391.7 505.3,391.8 505.2,392 503.7,392.9 503.4,393 502.8,393.3 502.2,393.9 501.5,394.4 
		501.2,394.6 500.6,395.2 499.6,395.7 498.5,396 498.2,396.1 498.2,396.2 497.8,396.3 496.4,396.5 495.4,396.7 494,397 493.7,397 
		492.3,397.3 491,397.9 489.8,398.4 489.4,398.6 488.6,399.1 488.5,399.2 488.3,399.2 487.2,399.4 486,399.4 485.5,399.4 
		485.4,399.4 485.3,399.3 485.2,399.3 484.5,399.3 483.8,399.3 483.6,399.3 483.2,399.4 482.9,399.4 482.4,399 481.7,398 
		481.4,398.1 481.1,399.1 480.7,400.8 480.6,401 481,401.5 481,401.6 480.6,402.1 480.5,402 480,401.4 479.6,401.2 479,400.8 
		478.9,400.8 478,400.5 477.9,400.4 477.5,400.2 477.1,400 476.3,399.7 476.2,399.5 475.7,398.7 474.6,399.2 474.6,399.3 474,399.6 
		473.9,399.6 471.9,401.6 470.8,402.2 471.6,403.5 470.8,403.4 469.6,403.6 469.1,403.8 468.8,406.4 468.7,406.7 468.7,406.8 
		461.4,438.8 457.1,434.8 445.4,424.2 444.8,423.7 438.6,418 435.8,415.2 430.4,409.5 430.3,409.5 429,408.1 428.6,407.8 
		440.6,400.5 446.6,396.8 452.3,392.4 458,387.9 462.3,384.5 463.5,383.4 464.9,382 465.4,381.5 466.1,380.9 466.4,380.6 
		468.4,378.7 468.6,378.5 469.8,377.4 469.4,377 470.4,376 472.8,373.8 475.8,371 476.1,370.7 479.1,369.3 479.2,369.2 481.3,367.3 
		482.7,365.9 485.2,363.4 485.5,363.1 489.7,360 492.8,356.6 	"/>
</g>
<g id="상암동">
	<polygon class="st0" points="232.3,128.5 249.7,143.4 255.6,135.6 257.2,137.2 257.1,137.3 257.1,137.3 256.7,137.8 251.8,143.6 
		249.5,146.3 249,146.9 248.2,148.1 248.1,148.1 245.8,151.6 245.6,152 245,152.8 244.4,153.6 244.1,154 242.9,156.6 241.4,159.6 
		241.1,157.4 240.8,155.3 236.8,160.3 234.4,158.5 233.5,159.7 233.2,159.8 233,160 232,160.5 231.3,160.8 231.1,160.9 230.6,161 
		230.5,161.1 230.3,161.4 230,161.2 228.7,161.3 227.9,161.5 227,161.8 225.6,162.3 224.4,162.5 224.2,162.6 224,162.6 222,162.6 
		220.8,162.6 220.5,162.5 219.5,162.3 218.4,162.6 218,162.8 217.6,162.9 215.9,163.8 215.6,163.8 215.4,163.9 215.4,163.9 
		215.2,163.9 215,164 213.9,164.1 213.1,163.7 212.6,162.9 211.4,161 211.1,160.5 210.7,160.2 208.7,160.2 206,162.1 205.5,162.1 
		204.9,162.2 202.5,162.3 202,162.6 201.7,162.8 201.5,163.2 201.2,163.7 201,164.4 200.8,165 200.6,165.9 200.7,167 200.5,168 
		200.4,168.9 199.9,170.3 200.1,171.2 200.1,171.8 199.6,172.8 199,174.1 197.9,175.1 197,175.2 195.7,175.7 194.9,176 193.8,176.4 
		192.3,177.2 192,177.3 191.9,177.4 195.6,181.6 196.7,182.8 200.2,186.6 201.4,187.8 201.5,188.3 201.4,188.8 201.3,189.7 
		200.9,190.7 200.8,191.1 200.7,191.2 200.5,192 200.2,192.9 201,193.4 201.8,193.9 203.6,195 204.9,196 205.2,196.1 206,196.7 
		207.1,197.3 208.2,198.1 209.4,198.9 209.9,199.1 210.1,199.2 210.3,199.3 210.4,199.5 210.5,199.8 213.1,201.7 215.3,203.2 
		216.6,211.4 215.7,215 214.9,218.6 213.8,222.1 212.9,225.2 211.6,228.7 210.4,232.1 209.2,235.5 206.8,238.6 208.9,240.4 
		209.4,241 209.4,241.1 212.6,245.1 207.4,248.2 156.2,279.5 153.9,277.7 152.5,276.5 150.2,274.6 147.3,272.3 146.9,271.9 
		138.5,265 129.5,257.6 128.8,257 120.6,249.9 118.8,248.3 118.7,248.1 116.9,246.6 116.9,246.6 102.7,234.1 101.6,233.1 
		101.1,232.7 101,232.6 93,225.6 85.9,219.6 70.9,206.8 60.5,200.6 41.7,189.4 40.9,188.9 31.1,183.1 30.8,182.5 30.8,182.5 
		28.2,177.6 28.1,177.6 26.1,173.9 27.9,151.2 28.4,145 48,143.5 54.5,139.9 55.4,139.4 57,138.5 67.4,145.9 69.7,144.5 71.2,142.3 
		72.8,139.8 79.6,133.8 93.5,131.6 98.9,128.7 99.2,128.6 99.3,128.5 106.7,124.6 111.4,122.3 111.6,122.2 113.4,121.4 115.5,120.3 
		119.5,119.9 119.6,119.8 120,119.2 120,119.2 120.7,118.3 120.7,118.2 121.7,115 121.7,114.7 121.7,112.7 121.7,111.2 121.7,111.2 
		122.6,108.5 123.4,107.4 123.7,106.9 124.7,105.5 125.1,104 125.7,101.6 125.3,100.4 124.9,99 124.7,98.6 124.1,96.6 125.1,96.1 
		127.8,94.6 127.8,94.3 127.5,93 125.3,93.1 123.6,91.1 124.6,90 124.7,89.4 124.8,88.6 124.9,87.8 125.9,85.2 126.1,84.6 
		126.7,82.9 127.2,81.3 127.3,81.2 127.4,81 128.4,77.9 128.5,77.9 129.2,77.3 130.1,77.1 132,77.1 132.5,77 132.7,77 133.1,76.9 
		134,76.5 134.5,76.4 135.2,75.5 135.5,74.6 135.7,74.1 136,72.7 136.3,71.7 136.7,70.2 137,68.9 137.8,66 139.1,63.5 139.4,62.9 
		139.4,62.1 139.4,61.9 139.5,61.6 139.5,61.6 139.5,61.3 139.5,61.2 139.6,61 139.6,60.9 140,60.7 140,60.7 140.1,60.7 140.3,60.6 
		140.4,60.5 140.6,60.4 140.8,60 141.1,58.7 141.1,58.4 141.2,57.9 141.4,57.3 141.9,56.1 142.9,55 143,54.9 144.5,53.9 144.9,53.6 
		150.1,49.3 151.8,47.9 152.2,48.4 156.9,53.5 162.1,58.7 163.6,60.2 163.8,60.5 164.3,61 166.5,63.3 166.8,63.6 169,66 169.3,66.3 
		172.5,70.1 175.2,73.3 175.3,73.4 175.7,73.8 178,76.3 178,76.3 178.7,77.1 180.1,78.5 181,79.5 184.2,82.8 187,85.8 187.9,86.8 
		190.5,89.2 190.5,89.2 190.8,89.4 192.1,90.5 194.9,92.8 196.7,94.4 197.9,95.4 198.4,95.8 199.6,96.8 201.9,98.8 206.7,103 
		206.9,103.1 207.2,103.4 208.7,104.3 208.7,104.3 208.8,104.4 209.5,104.8 217.6,108.2 222.4,112 224.5,114.3 230.9,122.7 
		231.1,125.9 232,128.2 	"/>
</g>
<g id="성산2동">
	<polygon class="st0" points="290.9,174.2 292.6,175.2 293.9,175.8 295.9,176.7 297.5,177.5 297.9,177.7 301,179.2 301.1,179.3 
		301.4,179.4 301.5,179.6 301.8,179.7 302.9,180.3 304.4,181.1 304.7,181.3 304.9,181.5 305,181.5 305.2,181.6 306.6,182.4 
		309.3,184 310.6,184.7 310.7,184.8 312,185.5 313.6,186.5 316.2,187.9 318.3,189.3 318.3,189.3 320.3,190.6 324.1,192.9 
		326.4,194.4 326.5,194.5 330.9,197.2 331,197.3 330.3,197.5 329.5,197.8 328.9,198 328.4,198.2 328,198.4 327.8,198.5 327.2,198.9 
		327,199 325.5,200.5 325.3,198.7 325.2,198.2 324.2,198.6 322.9,199.3 321.5,200 319.4,201.3 318.8,201.6 318.7,201.7 315.9,203.3 
		315.9,203.4 315.9,203.4 313,204.4 312.3,204.6 312.2,204.7 305.5,207 305.2,207.1 304.8,207.3 304.7,207.3 303,207.9 302.2,208.2 
		301.7,208.3 300.4,208.8 299.5,209.1 299.4,209.2 299.3,209.2 296.6,210.1 296.5,210.1 295.4,210.5 289.6,212.5 288.4,212.9 
		287.7,213.2 285.3,214 285.3,214 284.4,214.3 283.5,214.6 280.7,215.6 278.2,216.4 277.1,216.8 277,216.9 275.4,217.4 275,217.6 
		274.9,217.6 274,217.9 273.9,218 271.1,218.9 271.1,218.9 270.9,219 268.6,219.8 266.1,220.7 264.2,221.4 262.4,222 262.3,222 
		260.6,222.7 259.4,223.1 258.8,222.2 256.9,219.8 254.8,217.1 254.1,216.3 254,217.5 254,217.6 255.8,220.2 258.2,223.5 256,224.3 
		253.2,224.3 252.5,224.6 251.8,224.9 251.2,225.2 250.8,225.6 250.4,225.9 250,226.2 249.5,226.4 244.6,228.7 241.3,230.2 
		240.9,230.5 240.8,230.5 239.6,231.2 238.7,231.7 236.3,233 236,233.2 235.8,233.3 235.6,233.4 233.7,234.5 233,234.8 227.4,237.6 
		226.7,238 225.3,238.7 223.3,239.7 223.2,239.8 217.7,242.5 215.8,243.5 212.6,245.1 209.4,241.1 209.4,241 208.9,240.4 
		206.8,238.6 209.2,235.5 210.4,232.1 211.6,228.7 212.9,225.2 213.8,222.1 214.9,218.6 215.7,215 216.6,211.4 215.3,203.2 
		213.1,201.7 210.5,199.8 210.4,199.5 210.3,199.3 210.1,199.2 209.9,199.1 209.4,198.9 208.2,198.1 207.1,197.3 206,196.7 
		205.2,196.1 204.9,196 203.6,195 201.8,193.9 201,193.4 200.2,192.9 200.5,192 200.7,191.2 200.8,191.1 200.9,190.7 201.3,189.7 
		201.4,188.8 201.5,188.3 201.4,187.8 200.2,186.6 196.7,182.8 195.6,181.6 191.9,177.4 192,177.3 192.3,177.2 193.8,176.4 
		194.9,176 195.7,175.7 197,175.2 197.9,175.1 199,174.1 199.6,172.8 200.1,171.8 200.1,171.2 199.9,170.3 200.4,168.9 200.5,168 
		200.7,167 200.6,165.9 200.8,165 201,164.4 201.2,163.7 201.5,163.2 201.7,162.8 202,162.6 202.5,162.3 204.9,162.2 205.5,162.1 
		206,162.1 208.7,160.2 210.7,160.2 211.1,160.5 211.4,161 212.6,162.9 213.1,163.7 213.9,164.1 215,164 215.2,163.9 215.4,163.9 
		215.4,163.9 215.6,163.8 215.9,163.8 217.6,162.9 218,162.8 218.4,162.6 219.5,162.3 220.5,162.5 220.8,162.6 222,162.6 224,162.6 
		224.2,162.6 224.4,162.5 225.6,162.3 227,161.8 227.9,161.5 228.7,161.3 230,161.2 230.3,161.4 230.5,161.1 230.6,161 231.1,160.9 
		231.3,160.8 232,160.5 233,160 233.2,159.8 233.5,159.7 234.4,158.5 236.8,160.3 240.8,155.3 241.1,157.4 241.4,159.6 242.9,156.6 
		244.1,154 244.4,153.6 245,152.8 245.6,152 245.8,151.6 248.1,148.1 248.2,148.1 249,146.9 249.5,146.3 249.9,146.7 249.9,146.7 
		250.2,147 251.2,147.9 252.4,149 253.2,149.8 253.5,150.1 254.1,150.7 254.9,151.3 255.4,151.7 255.5,151.8 255.9,152.1 
		257.3,153.3 257.6,153.5 258.1,153.9 258.4,154.1 258.5,154.3 258.6,154.3 259,154.6 259.2,154.8 261.2,156.3 261.4,156.4 
		262.4,157.2 263.1,157.8 263.2,157.8 263.5,158 263.6,158.1 265.5,159.4 266.5,160.1 269,161.7 271,162.9 271.1,163 271.8,163.4 
		273.1,164.1 276.6,166.2 277.7,166.7 278,166.9 278.6,167.2 279.6,167.7 281.7,168.8 281.7,168.8 281.8,168.9 281.9,168.9 
		282.1,169 283.3,169.7 283.4,169.8 287.9,172.4 290.9,174.1 	"/>
</g>
<g id="성산1동">
	<polygon class="st0" points="259.4,223.1 260.6,222.7 262.3,222 262.4,222 264.2,221.4 266.1,220.7 268.6,219.8 270.9,219 
		271.1,218.9 271.1,218.9 273.9,218 274,217.9 274.9,217.6 275,217.6 275.4,217.4 277,216.9 277.1,216.8 278.2,216.4 280.7,215.6 
		283.5,214.6 284.4,214.3 285.3,214 285.3,214 287.7,213.2 288.4,212.9 289.6,212.5 295.4,210.5 296.5,210.1 296.6,210.1 
		299.3,209.2 299.4,209.2 299.5,209.1 300.4,208.8 301.7,208.3 302.2,208.2 303,207.9 304.7,207.3 304.8,207.3 305.2,207.1 
		305.5,207 312.2,204.7 312.3,204.6 313,204.4 315.9,203.4 315.9,203.4 315.9,203.3 318.7,201.7 318.8,201.6 319.4,201.3 321.5,200 
		322.9,199.3 324.2,198.6 325.2,198.2 325.3,198.7 325.5,200.5 325.9,202.6 325.9,202.7 326,202.9 326,203.3 326,203.8 326,203.8 
		326,204 326.1,204.1 326.1,204.2 326.1,204.8 326.1,204.8 326.1,204.9 326.2,205.4 326.3,205.4 326.4,205.6 326.4,205.6 
		326.4,206.5 326.7,206.6 326.7,206.6 326.7,207.3 326.7,207.6 326.6,207.7 326.2,207.7 326.2,208.1 326.2,208.2 326.3,208.6 
		326.3,208.7 326.3,209.4 326.5,209.4 326.6,209.4 326.6,209.8 326.6,209.9 326.5,210.1 326.6,210.7 326.6,210.7 326.7,210.8 
		326.7,210.9 326.7,211 326.8,211.3 326.7,211.4 326.7,211.5 326.8,212 326.8,212.1 326.7,212.1 326,212.2 326,212.2 326.6,214.7 
		326.7,215 326.9,216.4 327,216.4 327,216.4 327.5,219.8 327.6,219.9 327.7,221.3 328,221.3 328.3,221.3 328.4,221.3 328.4,221.3 
		328.4,221.7 328.4,221.8 328.4,221.8 328.3,221.8 327.8,221.8 327.7,221.9 328,223.2 328,223.2 328.4,223.1 328.5,223.1 
		328.6,223.1 328.7,223.6 328.7,223.7 328.6,223.8 328.4,223.8 328.2,223.8 328.3,224.4 328.4,224.5 328.5,225.2 328.6,225.3 
		328.7,226.3 328.9,227.1 329.2,228.5 330,228.4 330.1,228.4 330.2,229.2 330.2,229.2 330.4,230.3 330.5,230.3 330.5,230.6 
		330.4,230.7 330.4,230.7 330.6,231.5 330.6,231.5 330.9,231.5 331,231.4 331.2,232.3 331.4,232.3 331.4,232.4 331.4,232.4 
		331.6,233 331.6,233.3 331.5,233.3 331.6,233.5 331.6,233.6 331.6,233.6 331.7,234.1 331.7,234.1 331.7,234.4 331.8,234.4 
		332.1,234.4 332.1,234.5 332.1,234.7 332.3,235.1 332.1,235.2 332,235.2 332.1,235.6 332.2,236.2 332.2,236.2 332.2,236.3 
		332.2,236.3 332.3,236.4 332.4,236.9 332.4,237 332.5,237 332.5,237.2 332.7,237.8 332.9,238.3 333,238.3 333.3,238.4 333.3,238.6 
		333.3,238.8 333.3,238.9 332.5,239.2 332.4,239.2 333,240.8 333,241.2 331.9,241 331.9,241.6 332.2,241.7 332.8,241.8 332.7,242.3 
		332.6,242.3 332.4,242.3 332.1,243.1 331.9,243.5 331.9,243.6 332.5,244 332.3,244.3 332.1,244.6 332.1,244.6 332,244.7 
		331.9,244.6 331.9,244.6 331.7,245 331.6,245.2 331.6,245.3 331.7,245.4 332.1,245.6 331.7,246.1 331.7,246.2 332.2,246.5 
		331.5,247.6 332,248.3 331.8,249.1 330.9,250.7 330,251.5 330.1,251.5 330.2,251.9 329.7,252.3 329.3,252.5 328.9,252.8 328.5,253 
		328.1,253.2 327.3,253.4 326.4,253.8 325.5,254.3 325.5,254.3 325.1,254.6 325,254.6 324.4,254.9 323.4,255.2 323,255.3 
		322.5,255.4 322.3,255.4 322.3,255.4 321.5,255.5 321.5,255.5 320.9,255.7 319.2,255.8 319,255.8 318.9,255.8 318.8,254.9 
		318.7,255 317.7,254.9 317.7,255.8 316.2,255.6 315.7,255.5 315.1,255.5 314.3,255.5 313.5,255.4 312.8,255.3 312.7,255.3 
		311.6,255.1 311.1,255.1 310.9,255.1 310.7,255.2 309.7,255.1 309,255 308.8,255 307.6,255.7 307.5,255.7 307.4,255.5 307.3,255.5 
		306.9,255.6 306.4,254.8 305.9,255 305,255.3 304.9,255.2 304.9,254.8 303.5,255.1 303.5,255.1 303.2,254.3 302.4,254.5 
		302.4,254.4 302.4,254.5 301.7,254.6 302,255.6 301.5,255.7 301.4,255.7 301.3,255.5 300.8,255.6 300.6,255.7 300.5,255.7 
		300.3,255.9 299.6,256.1 298.6,256.4 296.7,256.9 296.5,257 296.5,256.8 295.1,257 294.2,257.3 293,257.6 292.3,257.9 292,258 
		290.7,258.6 290.5,258.7 290.8,259.8 289.2,260.1 287,260.3 286,260.8 285.8,260.8 285.7,260.9 285.6,260.8 284.4,259.2 
		284.4,259.1 284.3,259.1 284,258.7 282.8,257.1 282.7,256.9 280,253.1 280,253 279.2,252 277.1,249 277,248.8 277,248.7 
		276.5,248.2 275.8,247.2 274.8,245.7 273.5,243.9 271.7,241.3 271.6,241.3 270.3,239.4 268.7,237.2 268.6,237 268,236.2 
		264.9,231.8 264.9,231.8 264.8,231.7 263.1,229.3 263.1,228.2 	"/>
</g>
<g id="연남동">
	<polygon class="st0" points="325.5,200.5 327,199 327.2,198.9 327.8,198.5 328,198.4 328.4,198.2 328.9,198 329.5,197.8 
		330.3,197.5 331,197.3 332.3,197.9 334.4,199 334.7,199.1 334.7,199.1 336.6,200 337.5,200.5 338.9,201 339.1,201 339.8,201.3 
		341.4,201.9 342.4,202.1 343.2,202.2 343.7,202.3 347.1,203.2 348.2,203.4 348.3,203.4 348.6,203.5 349.8,203.8 349.8,203.9 
		350.4,204 350.8,204.1 352.1,204.3 353.9,204.7 354,204.7 355.3,205 356.1,205.2 356.4,205.2 358.3,205.7 361,206.4 361.1,206.4 
		361.6,206.5 364.4,207.5 366.4,208.2 368.3,209.3 368.9,209.7 369.5,210 370.3,210.4 370.6,210.7 371.1,211 371.8,211.4 
		372.5,211.9 372.5,211.9 373.3,212.6 373.4,212.7 374.3,213.4 374.6,213.7 376.9,215.9 376.9,215.9 377.2,216.2 378.6,217.6 
		379.2,218.2 379.3,218.3 379.6,218.7 380.3,219.4 381.4,220.5 384.1,223.4 383.4,224.6 383.3,224.8 381.2,228.6 380.7,229.6 
		380.2,230.4 379.7,231.3 379.7,231.3 378.9,232.7 378.9,232.7 378.8,233 378.5,233.5 376.8,234.5 376.7,234.6 376.2,234.9 
		375.5,235.4 374,236.8 372.4,238.5 372,239.1 372,239.2 371.4,240.1 371.4,240.2 371.4,240.3 371.1,240.8 370.7,241.7 370.6,242.1 
		370.5,242.2 370.4,242.2 368.9,242 368.2,241.8 367.9,241.6 367.5,241.2 367.1,240.9 366,240.4 366,240.3 365.9,240.1 365.7,239.7 
		365.7,239.7 365.2,239.6 363.9,239.1 363.9,239.1 363.9,240.1 363.8,240.2 363.8,240.9 363.7,241.3 363.6,241.3 362.9,241.9 
		362.8,241.9 362.3,242.3 361.6,244.9 361.1,244.2 361,244 361,244 359,240.7 358.9,240.8 356.8,242.5 356.8,242.6 356.3,243 
		355,244.1 354,245 351.3,247.4 351.2,247.4 351.1,247.5 351.1,247.5 349.9,248.5 349.8,248.5 348.6,249.4 348.6,249.5 348.4,249.7 
		347.9,250.1 347.4,250.5 345.2,252.4 345.1,252.5 342.6,254.7 342.1,255.1 341.8,255.3 341.3,255.8 341.3,255.8 340.3,256.6 
		339.1,257.7 339,257.7 339,257.8 336.2,260.2 334.4,257.7 331.6,253.8 331.5,253.7 331.5,253.6 331.4,253.5 331.4,253.5 
		330.2,251.9 330.1,251.5 330,251.5 330.9,250.7 331.8,249.1 332,248.3 331.5,247.6 332.2,246.5 331.7,246.2 331.7,246.1 
		332.1,245.6 331.7,245.4 331.6,245.3 331.6,245.2 331.7,245 331.9,244.6 331.9,244.6 332,244.7 332.1,244.6 332.1,244.6 
		332.3,244.3 332.5,244 331.9,243.6 331.9,243.5 332.1,243.1 332.4,242.3 332.6,242.3 332.7,242.3 332.8,241.8 332.2,241.7 
		331.9,241.6 331.9,241 333,241.2 333,240.8 332.4,239.2 332.5,239.2 333.3,238.9 333.3,238.8 333.3,238.6 333.3,238.4 333,238.3 
		332.9,238.3 332.7,237.8 332.5,237.2 332.5,237 332.4,237 332.4,236.9 332.3,236.4 332.2,236.3 332.2,236.3 332.2,236.2 
		332.2,236.2 332.1,235.6 332,235.2 332.1,235.2 332.3,235.1 332.1,234.7 332.1,234.5 332.1,234.4 331.8,234.4 331.7,234.4 
		331.7,234.1 331.7,234.1 331.6,233.6 331.6,233.6 331.6,233.5 331.5,233.3 331.6,233.3 331.6,233 331.4,232.4 331.4,232.4 
		331.4,232.3 331.2,232.3 331,231.4 330.9,231.5 330.6,231.5 330.6,231.5 330.4,230.7 330.4,230.7 330.5,230.6 330.5,230.3 
		330.4,230.3 330.2,229.2 330.2,229.2 330.1,228.4 330,228.4 329.2,228.5 328.9,227.1 328.7,226.3 328.6,225.3 328.5,225.2 
		328.4,224.5 328.3,224.4 328.2,223.8 328.4,223.8 328.6,223.8 328.7,223.7 328.7,223.6 328.6,223.1 328.5,223.1 328.4,223.1 
		328,223.2 328,223.2 327.7,221.9 327.8,221.8 328.3,221.8 328.4,221.8 328.4,221.8 328.4,221.7 328.4,221.3 328.4,221.3 
		328.3,221.3 328,221.3 327.7,221.3 327.6,219.9 327.5,219.8 327,216.4 327,216.4 326.9,216.4 326.7,215 326.6,214.7 326,212.2 
		326,212.2 326.7,212.1 326.8,212.1 326.8,212 326.7,211.5 326.7,211.4 326.8,211.3 326.7,211 326.7,210.9 326.7,210.8 326.6,210.7 
		326.6,210.7 326.5,210.1 326.6,209.9 326.6,209.8 326.6,209.4 326.5,209.4 326.3,209.4 326.3,208.7 326.3,208.6 326.2,208.2 
		326.2,208.1 326.2,207.7 326.6,207.7 326.7,207.6 326.7,207.3 326.7,206.6 326.7,206.6 326.4,206.5 326.4,205.6 326.4,205.6 
		326.3,205.4 326.2,205.4 326.1,204.9 326.1,204.8 326.1,204.8 326.1,204.2 326.1,204.1 326,204 326,203.8 326,203.8 326,203.3 
		326,202.9 325.9,202.7 325.9,202.6 	"/>
</g>
<g id="망원2동">
	<polygon class="st0" points="212.6,245.1 215.8,243.5 217.7,242.5 223.2,239.8 223.3,239.7 225.3,238.7 226.7,238 227.4,237.6 
		233,234.8 233.7,234.5 235.6,233.4 235.8,233.3 236,233.2 236.3,233 238.7,231.7 239.6,231.2 240.8,230.5 240.9,230.5 241.3,230.2 
		244.6,228.7 249.5,226.4 250,226.2 250.4,225.9 250.8,225.6 251.2,225.2 251.8,224.9 252.5,224.6 253.2,224.3 256,224.3 
		258.2,223.5 255.8,220.2 254,217.6 254,217.5 254.1,216.3 254.8,217.1 256.9,219.8 258.8,222.2 259.4,223.1 263.1,228.2 
		263.1,229.3 264.8,231.7 264.9,231.8 264.9,231.8 268,236.2 268.6,237 268.7,237.2 270.3,239.4 271.6,241.3 271.7,241.3 
		273.5,243.9 274.8,245.7 275.8,247.2 276.5,248.2 277,248.7 277,248.8 277.1,249 279.2,252 280,253 280,253.1 282.7,256.9 
		279.3,257.8 279.3,257.8 279.2,257.8 277,258.3 277,258.4 276.4,258.5 276.1,258.6 276,258.6 275.4,258.8 275.3,258.8 274.9,258.9 
		273.1,259.4 272.2,259.6 270.3,260.1 270.1,260.2 266.8,261 263.7,261.8 263.6,261.8 263.6,261.9 261.9,262.3 257,263.6 
		256.9,263.6 256.8,263.6 255.1,264.1 255,264.1 254.5,264.2 254.4,264.2 253.3,264.5 253.2,264.6 253.2,264.6 252.9,264.6 
		251.7,264.9 251.6,265 251.5,265 251.5,265 250,265.4 249.9,265.4 247.8,266 246.5,266.3 245.6,266.5 245.5,266.6 245.4,266.6 
		245.4,266.6 245.2,266.6 245.1,266.7 245,266.7 244.9,266.7 244.9,266.7 242.9,267.2 242.9,267.2 242.8,267.2 241.6,267.6 
		238.9,268.3 238.2,268.5 238.1,268.5 235.9,269 235.8,269.1 235.7,269.1 235.5,269.2 234.1,269.5 234.1,269.5 232.9,269.8 
		232.7,269.9 230.9,270.3 230.9,270.4 230,270.6 228.5,271 228.4,271 226.5,271.5 225.6,271.7 225.6,271.7 224.3,272.8 224.2,272.8 
		222.1,274.7 214.5,281.6 214.1,282 208.9,287.2 205.4,289.8 189.4,306.8 156.2,279.5 207.4,248.2 	"/>
</g>
<g id="망원1동">
	<polygon class="st0" points="282.7,256.9 282.8,257.1 284,258.7 284.3,259.1 284.4,259.1 284.4,259.2 285.6,260.8 285.7,260.9 
		286.6,262 287.4,263.2 288.7,265 288.8,265 288.8,265.1 288.8,265.1 289,265 289.2,264.8 289.4,265 293.6,270.9 294,271.4 
		295.4,273.4 295.1,273.7 295.6,274.3 296.5,275.7 296.5,275.7 296.6,275.8 300.1,281 300.1,281 300.1,281.1 300.2,281.1 
		300.2,281.2 298.4,281.9 297.1,282.4 295.8,282.9 293.6,283.8 291,284.7 288.9,285.6 288.9,285.6 288.9,285.6 288.8,285.6 
		287.5,286.2 287.5,286.2 286.3,286.6 285.3,287 285.3,287 285.3,287 284.4,287.4 284.3,287.4 281.7,288.5 281.6,288.5 279.6,289.3 
		279.5,289.4 279.4,289.4 279.3,289.4 277.4,290.2 277.3,290.2 277.2,290.3 276.1,290.7 274.3,291.4 274.3,291.4 271.6,292.5 
		271.5,292.6 270.7,292.9 270.6,292.9 269.7,293.3 266.7,294.5 266.5,294.6 266.1,294.8 266,294.8 266,294.8 265.9,294.8 
		264.1,295.5 262.3,296.2 261.2,296.6 260.6,296.9 260.5,296.9 258.7,297.6 258.6,297.6 258.4,297.7 258.2,297.8 258,297.8 
		255.5,298.7 255.4,298.7 255.3,298.8 254.8,298.9 246.6,308.1 224.8,331.3 219.4,327.6 215.8,325.1 213.8,323.7 210.4,321.4 
		207.6,319.4 206.1,318.4 189.4,306.8 205.4,289.8 208.9,287.2 214.1,282 214.5,281.6 222.1,274.7 224.2,272.8 224.3,272.8 
		225.6,271.7 225.6,271.7 226.5,271.5 228.4,271 228.5,271 230,270.6 230.9,270.4 230.9,270.3 232.7,269.9 232.9,269.8 234.1,269.5 
		234.1,269.5 235.5,269.2 235.7,269.1 235.8,269.1 235.9,269 238.1,268.5 238.2,268.5 238.9,268.3 241.6,267.6 242.8,267.2 
		242.9,267.2 242.9,267.2 244.9,266.7 244.9,266.7 245,266.7 245.1,266.7 245.2,266.6 245.4,266.6 245.4,266.6 245.5,266.6 
		245.6,266.5 246.5,266.3 247.8,266 249.9,265.4 250,265.4 251.5,265 251.5,265 251.6,265 251.7,264.9 252.9,264.6 253.2,264.6 
		253.2,264.6 253.3,264.5 254.4,264.2 254.5,264.2 255,264.1 255.1,264.1 256.8,263.6 256.9,263.6 257,263.6 261.9,262.3 
		263.6,261.9 263.6,261.8 263.7,261.8 266.8,261 270.1,260.2 270.3,260.1 272.2,259.6 273.1,259.4 274.9,258.9 275.3,258.8 
		275.4,258.8 276,258.6 276.1,258.6 276.4,258.5 277,258.4 277,258.3 279.2,257.8 279.3,257.8 279.3,257.8 	"/>
</g>
<g id="합정동">
	<polygon class="st0" points="343.8,318.8 342.8,321.2 342.6,321.4 342.5,321.7 342.4,321.7 341.6,322.8 340.7,325.1 340.5,325.9 
		339.3,328.6 339.3,328.7 338.4,330.9 337.7,332.5 337.3,333.5 337.2,333.8 336.8,334.8 336.7,335 335.7,337.1 335.7,337.1 
		335.7,337.2 335.6,337.4 335.4,338.1 335.1,338.5 335,339.6 333.2,342.3 332.3,342.6 332,341.6 331.2,340.6 330.4,341 330.4,342.1 
		329.2,344 329,345.3 327.1,348 326.9,348.4 325.6,349.6 324.7,351.2 322.3,355.7 314.5,370.5 312.6,370 283.4,361.8 280.1,360.9 
		272.5,358.7 261.6,353.4 260.8,353 259.3,352.3 258.3,351.8 245.5,345.6 244.8,345.2 242.3,343.5 242.2,343.4 237.5,340.2 
		237.5,340.1 235.7,338.9 224.8,331.3 246.6,308.1 254.8,298.9 255.3,298.8 255.4,298.7 255.5,298.7 258,297.8 258.2,297.8 
		258.4,297.7 258.6,297.6 258.7,297.6 260.5,296.9 260.6,296.9 261.2,296.6 262.3,296.2 264.1,295.5 265.9,294.8 266,294.8 
		266,294.8 266.1,294.8 266.5,294.6 266.7,294.5 269.7,293.3 270.6,292.9 270.7,292.9 271.5,292.6 271.6,292.5 274.3,291.4 
		274.3,291.4 276.1,290.7 277.2,290.3 277.3,290.2 277.4,290.2 279.3,289.4 279.4,289.4 279.5,289.4 279.6,289.3 281.6,288.5 
		281.7,288.5 284.3,287.4 284.4,287.4 285.3,287 285.3,287 285.3,287 286.3,286.6 287.5,286.2 287.5,286.2 288.8,285.6 288.9,285.6 
		288.9,285.6 288.9,285.6 291,284.7 293.6,283.8 295.8,282.9 297.1,282.4 298.4,281.9 300.2,281.2 301.4,285.9 302.5,290.6 
		302.5,290.6 302.5,290.6 303.2,293.3 303.8,295.9 303.8,296 305.9,304.8 307,309.2 306.3,309.3 306.6,310.9 307,312.8 307.5,313.5 
		308.1,314 308.2,314.2 308.4,314.3 309.2,314.9 309.4,315 311.5,316 314,316.5 314.1,315.9 314.3,315.4 310.1,314.1 309.1,313.3 
		311,311.5 311.3,312 313.9,309.5 315.1,310.7 315.1,310.8 315.5,311.2 315.8,311.5 316.4,312.2 317.2,313 317.5,313.3 318.6,313.5 
		318.7,313.6 320.7,314.1 320.8,314.1 321.7,314.3 324.9,315.2 327.1,315.8 327.8,315.9 327.9,316 329.4,316.3 332.4,317.1 
		332.5,317.2 335.9,318 335.9,318 336,318 339.2,318.3 339.2,318.3 339.3,318.3 339.3,318.3 340.9,318.5 341.1,318.5 343.6,318.7 	
		"/>
</g>
<g id="서교동">
	<polygon class="st0" points="330.2,251.9 331.4,253.5 331.4,253.5 331.5,253.6 331.5,253.7 331.6,253.8 334.4,257.7 336.2,260.2 
		339,257.8 339,257.7 339.1,257.7 340.3,256.6 341.3,255.8 341.3,255.8 341.8,255.3 342.1,255.1 342.6,254.7 345.1,252.5 
		345.2,252.4 347.4,250.5 347.9,250.1 348.4,249.7 348.6,249.5 348.6,249.4 349.8,248.5 349.9,248.5 351.1,247.5 351.1,247.5 
		351.2,247.4 351.3,247.4 354,245 355,244.1 356.3,243 356.8,242.6 356.8,242.5 358.9,240.8 359,240.7 361,244 361,244 361.1,244.2 
		361.6,244.9 362.3,242.3 362.8,241.9 362.9,241.9 363.6,241.3 363.7,241.3 363.8,240.9 363.8,240.2 363.9,240.1 363.9,239.1 
		363.9,239.1 365.2,239.6 365.7,239.7 365.7,239.7 365.9,240.1 366,240.3 366,240.4 367.1,240.9 367.5,241.2 367.9,241.6 
		368.2,241.8 368.9,242 370.4,242.2 370.5,242.2 370.6,242.1 370.7,241.7 371.1,240.8 371.4,240.3 371.4,240.2 371.4,240.1 
		372,239.2 372,239.1 372.4,238.5 374,236.8 375.5,235.4 376.2,234.9 376.7,234.6 376.8,234.5 378.5,233.5 377,236.4 376.3,238.2 
		376.3,238.7 376.3,239.3 375.9,243.5 375.6,246.8 375.6,246.9 375.5,248.2 375.2,249.7 375.6,251.1 375.7,251.2 375.9,252 
		377.8,253 378.4,253.3 379.6,253.9 381.1,254.6 381.1,254.6 381.3,254.6 381.3,254.7 381.5,254.8 385.7,256.7 386.6,257.1 
		386.7,257.1 386.7,257.2 386.8,257.2 386.8,257.2 392.9,260.1 393.2,260.3 393.3,260.3 393.4,260.3 393.6,260.4 398.2,262.5 
		398.3,262.5 398.4,262.5 401.4,263.9 401.5,264 402.4,264.4 402.9,264.6 403.1,264.7 407.1,266.4 407.2,266.4 413,268.9 
		413.3,269.1 413.4,269.1 413.4,269.1 414.8,269.8 414.8,269.8 418.9,271.7 418.7,272.1 418.8,272.2 419.9,272.7 422.7,273.9 
		425.5,275.1 426.9,275.6 427.6,275.7 423.3,278.8 423.2,278.8 423.2,278.9 420.1,281.1 418.7,282.2 418.7,282.2 415.8,284.5 
		415.7,284.6 414,286 413.9,286.1 413.5,286.4 413.3,286.5 412.2,285.8 411.6,286.6 405.5,281.2 405.5,281.1 402.5,278.7 
		402.4,278.7 401.8,278.2 401.7,278.2 399.1,278.4 395.5,277.9 394.6,277.8 393.8,277.6 393.6,277.6 393.5,277.7 393.5,277.8 
		393,278.6 392.8,279 391.7,279.9 391.7,279.9 389.4,281.8 389.3,281.8 387.1,283.6 387.1,283.6 386.1,284.4 384.6,284.9 384.2,285 
		384.1,285 382.3,285.6 380,286.3 379.2,286.5 376,287.4 374.6,287.3 373.8,287.2 372.3,287.1 370.2,286.9 367.8,287.9 368.4,288.6 
		367.5,289.8 364.7,292.2 363.9,292.7 363.6,292.9 363.2,293.7 363,293.9 362.9,294.7 362.9,295.2 363,295.6 363,296.1 363.1,296.5 
		363.6,298.2 363.7,298.7 363.7,300.6 363.8,301 363.7,302.2 363.4,302.2 362.6,302.5 362.4,302.6 362.3,302.8 362.2,303.1 
		362.2,303.2 362.2,303.3 362.2,303.4 361.9,304 361.6,304.3 361.3,304.4 360.8,304.7 360.2,304.9 359.3,305.4 357.8,306.6 
		357.8,307 357.8,307.1 357.8,308.1 357.1,308.6 356.8,308.8 354.4,310.8 353.5,311.5 353.4,311.6 352.6,312.6 351.7,313.8 
		350.5,314.5 349.1,315.4 348.1,316.3 347.5,316.9 346.7,317.2 345.2,317.8 345.1,317.8 344.1,318.2 344,318.3 343.8,318.8 
		343.6,318.7 341.1,318.5 340.9,318.5 339.3,318.3 339.3,318.3 339.2,318.3 339.2,318.3 336,318 335.9,318 335.9,318 332.5,317.2 
		332.4,317.1 329.4,316.3 327.9,316 327.8,315.9 327.1,315.8 324.9,315.2 321.7,314.3 320.8,314.1 320.7,314.1 318.7,313.6 
		318.6,313.5 317.5,313.3 317.2,313 316.4,312.2 315.8,311.5 315.5,311.2 315.1,310.8 315.1,310.7 313.9,309.5 311.3,312 311,311.5 
		309.1,313.3 310.1,314.1 314.3,315.4 314.1,315.9 314,316.5 311.5,316 309.4,315 309.2,314.9 308.4,314.3 308.2,314.2 308.1,314 
		307.5,313.5 307,312.8 306.6,310.9 306.3,309.3 307,309.2 305.9,304.8 303.8,296 303.8,295.9 303.2,293.3 302.5,290.6 302.5,290.6 
		302.5,290.6 301.4,285.9 300.2,281.2 300.2,281.1 300.1,281.1 300.1,281 300.1,281 296.6,275.8 296.5,275.7 296.5,275.7 
		295.6,274.3 295.1,273.7 295.4,273.4 294,271.4 293.6,270.9 289.4,265 289.2,264.8 289,265 288.8,265.1 288.8,265.1 288.8,265 
		288.7,265 287.4,263.2 286.6,262 285.7,260.9 285.8,260.8 286,260.8 287,260.3 289.2,260.1 290.8,259.8 290.5,258.7 290.7,258.6 
		292,258 292.3,257.9 293,257.6 294.2,257.3 295.1,257 296.5,256.8 296.5,257 296.7,256.9 298.6,256.4 299.6,256.1 300.3,255.9 
		300.5,255.7 300.6,255.7 300.8,255.6 301.3,255.5 301.4,255.7 301.5,255.7 302,255.6 301.7,254.6 302.4,254.5 302.4,254.4 
		302.4,254.5 303.2,254.3 303.5,255.1 303.5,255.1 304.9,254.8 304.9,255.2 305,255.3 305.9,255 306.4,254.8 306.9,255.6 
		307.3,255.5 307.4,255.5 307.5,255.7 307.6,255.7 308.8,255 309,255 309.7,255.1 310.7,255.2 310.9,255.1 311.1,255.1 311.6,255.1 
		312.7,255.3 312.8,255.3 313.5,255.4 314.3,255.5 315.1,255.5 315.7,255.5 316.2,255.6 317.7,255.8 317.7,254.9 318.7,255 
		318.8,254.9 318.9,255.8 319,255.8 319.2,255.8 320.9,255.7 321.5,255.5 321.5,255.5 322.3,255.4 322.3,255.4 322.5,255.4 
		323,255.3 323.4,255.2 324.4,254.9 325,254.6 325.1,254.6 325.5,254.3 325.5,254.3 326.4,253.8 327.3,253.4 328.1,253.2 328.5,253 
		328.9,252.8 329.3,252.5 329.7,252.3 	"/>
</g>
<g id="신수동">
	<polygon class="st0" points="447.1,329.6 445.9,331.5 445.8,331.6 445.2,332.6 441.7,337 439.2,340.7 438.7,341.3 438.6,341.4 
		438.3,341.7 438,342.1 437.9,342.4 437.8,342.7 437.5,343.4 437.2,344.3 437.2,344.4 437.1,344.6 436.5,345.8 436.1,346.4 
		436,346.5 434.7,348.5 434.6,348.6 433.3,350.6 433.3,350.6 433.2,350.8 431.6,353.1 431.5,353.3 430.7,354.4 430.5,354.7 
		430,355.3 429.1,356.6 429.1,356.6 428.9,357.1 428.5,357.9 428.5,357.9 428.2,358.7 427.9,359.3 427.8,359.6 426.4,362.7 
		416.6,386.4 413.1,394.9 399.1,392.6 391.2,391.3 388.9,390.9 385.9,390 382.3,389 375.3,387 370.8,385.7 370.1,385.5 369.9,385.4 
		375.2,375.7 387.3,353.2 389.6,349.1 391.4,345.7 391.7,345.1 392.7,343.1 393.3,342.1 393.5,341.7 394,341.4 394.9,341.2 
		396,340.9 396.3,340.7 396.5,340.5 396.7,340.5 396.9,340.3 399.9,339.3 400.2,339 400.2,339 402.5,336.9 402.5,336.9 402.6,336.6 
		403.3,333.9 404.2,330.7 404.5,329.9 405.4,326.9 406.1,324.3 406.2,324.2 406.2,324.1 406.1,323.3 406.1,322.6 406.3,321.1 
		406.5,319.8 407.1,315.4 407.4,313 407.5,312.4 407.8,308.2 407.8,307.8 407.8,298.7 407.8,298.4 407.8,298.3 408.1,296.3 
		408.4,294.7 408.8,293.3 408.8,293.1 409.4,291.3 409.5,290.9 410.2,290 410.5,289.7 410.6,289.6 411.7,288.4 412.5,289.8 
		413.4,291.1 413.4,291.4 413.4,291.6 415.1,292.9 416.2,293.8 417.6,294.9 417.7,295 418.5,295.6 420,296.8 423.2,298.3 
		425.7,299.4 426.2,299.8 426.6,300.1 428.4,301.5 428.4,301.5 428.5,301.6 430.6,304 433.7,309.4 434,309.8 434.4,310.5 436,313.2 
		436.1,313.2 436.8,314.4 436.9,314.6 436.9,314.6 437.1,314.9 439,318 439.4,318.4 440.3,319.6 441.6,321.2 441.9,321.7 
		441.7,321.8 443,323.1 442.9,323.2 442,324 442.7,324.7 443.7,326.1 443.8,326.9 443.7,327.6 443.8,327.9 443.9,328.2 	"/>
</g>
<g id="염리동">
	<polygon class="st0" points="488.2,263.9 488.3,265.2 488.3,265.3 488.3,265.3 488.2,265.4 488.1,265.5 488,265.5 488,266.3 
		486.3,266.3 486.3,266.8 486.3,267.2 486.3,267.2 486.5,267.3 486.5,268.2 486.6,269.2 486.6,269.2 486.6,271.3 487.2,272.9 
		487.7,273.7 487.8,273.7 488.7,273 489.7,273 489.7,273.1 489.7,273.3 490.1,273.3 490.6,273.4 490.8,273.5 491.3,273.8 
		491.8,274.1 492.4,276.2 492,276.3 492.7,278.4 492.4,278.4 492.7,278.9 492.7,278.9 492.7,278.9 492.9,278.8 493.1,279.3 
		493.4,279.3 493.5,279.2 493.6,279.5 493.6,279.6 493.8,279.7 494.3,279.5 494.5,280.1 494.6,280.1 494.6,280.1 494.7,280.4 
		494.8,280.5 494.9,280.5 494.9,280.4 495,280.4 495.2,280.8 495.4,280.7 495.4,280.7 495.6,281.2 495.3,281.3 494.2,281.7 
		493.8,281.8 493.8,281.8 494,282.3 494.1,282.6 494.1,283.4 496,282.9 496.1,283.4 496.5,286.3 496.5,286.4 496.6,286.5 
		496.9,287.6 497.3,289.3 497.2,290.3 497.1,291.9 497,293.4 496.9,293.7 496.9,294.3 496.6,295.4 496.6,296.3 496.5,297 
		496.4,297.3 496.3,298 496.2,298.3 496.2,298.4 495.9,299.6 495.2,300.9 495.1,301 495,301.2 494,302.9 493.9,303 491.7,304.5 
		491.6,305.5 491.5,306.2 491.4,306.6 491.2,307.4 490.2,310.7 490.9,312.4 491.3,313.7 491.9,315.7 492,315.7 492.4,316.7 
		492.7,317.4 492.9,318.2 493,318.8 493,319 493.8,323.2 493.3,323.9 492,325.1 490.3,326.8 490.2,326.8 490,327.4 488.8,329.5 
		488.3,330.5 487.4,332.1 486.3,333.9 485.7,333.5 485.4,334 485.1,334.5 484.6,335.5 484,336.4 483.5,336.2 482.9,337.3 
		482.7,337.5 482.7,337.6 482,337.7 481.1,337.8 479.6,340.1 479.7,340.2 482,341.5 484.4,342.8 486.4,344 487.2,344.4 491.7,347 
		492,347.2 492.4,347.4 490.1,350.6 488.7,350.4 485.3,348.5 484.9,348.3 483.2,349.9 482.9,350.3 476.3,346.1 475.2,345.5 
		475,345.3 471.3,343.1 469.6,341.7 468.9,341.2 467.7,340.2 467.6,340.1 467.5,340 467.5,340 466.3,338.9 468.1,336.6 467.3,335.4 
		465.9,334.6 466.3,334 466.3,333.8 466.4,333.7 466.5,333.5 466.7,333.2 466.7,333.1 466.5,332.9 465.4,332.1 465.3,332 
		464.4,331.3 464,331.2 463.5,330.2 462.5,328.2 462.3,327.4 462.2,326.8 462.2,326.7 462.2,326.5 462.3,325.8 462.4,324.6 
		462.4,324.4 462.5,324.2 463.2,323.2 464.2,321.3 464.2,321.3 464.8,319.3 465.7,317.7 466.2,316.3 467.1,313.6 467.9,312.1 
		468.4,311.5 468.9,311.2 469.1,311.1 470,311.2 472.9,311.5 472.9,311.4 472.9,311.4 474.3,308.5 475,307 475.6,305.2 475.9,304.5 
		476.3,303.4 476.5,302.9 476.6,302 476.7,301.5 477.1,297.8 477.1,296.8 477.1,295.7 477.9,293.8 477.9,293.5 477.9,292.7 
		477.9,292.7 476.9,292.6 476.8,291.1 477.2,291.1 477.3,291.1 477.4,291.1 477.4,291.1 477.8,291.1 477.8,291 477.9,291 477.9,291 
		478,290.1 478,289.6 478,289.4 477.8,289.2 477.5,288.9 477.2,288.8 476.5,288.8 476.6,286.4 476.6,284.1 476.6,280.4 476.6,280.3 
		476.6,278.4 476.6,277.7 476.5,274.3 476.5,274.3 476.4,271.1 476.4,268 476.4,268 476.4,266.6 476.4,265.4 477.9,265.2 
		477.9,264.7 478.9,264.6 480.6,264.5 481.7,264.4 485.5,264.1 488.1,263.9 	"/>
</g>
<g id="대흥동">
	<polygon class="st0" points="477.9,264.7 477.9,265.2 476.4,265.4 476.4,266.6 476.4,268 476.4,268 476.4,271.1 476.5,274.3 
		476.5,274.3 476.6,277.7 476.6,278.4 476.6,280.3 476.6,280.4 476.6,284.1 476.6,286.4 476.5,288.8 477.2,288.8 477.5,288.9 
		477.8,289.2 478,289.4 478,289.6 478,290.1 477.9,291 477.9,291 477.8,291 477.8,291.1 477.4,291.1 477.4,291.1 477.3,291.1 
		477.2,291.1 476.8,291.1 476.9,292.6 477.9,292.7 477.9,292.7 477.9,293.5 477.9,293.8 477.1,295.7 477.1,296.8 477.1,297.8 
		476.7,301.5 476.6,302 476.5,302.9 476.3,303.4 475.9,304.5 475.6,305.2 475,307 474.3,308.5 472.9,311.4 472.9,311.4 472.9,311.5 
		470,311.2 469.1,311.1 468.9,311.2 468.4,311.5 467.9,312.1 467.1,313.6 466.2,316.3 465.7,317.7 464.8,319.3 464.2,321.3 
		464.2,321.3 463.2,323.2 462.5,324.2 462.4,324.4 462.4,324.6 462.3,325.8 462.2,326.5 462.2,326.7 462.2,326.8 462.3,327.4 
		462.5,328.2 463.5,330.2 464,331.2 464.4,331.3 465.3,332 465.4,332.1 466.5,332.9 466.7,333.1 466.7,333.2 466.5,333.5 
		466.4,333.7 466.3,333.8 466.3,334 465.9,334.6 467.3,335.4 468.1,336.6 466.3,338.9 465.8,338.6 465.1,338 462.3,335.9 461,335.2 
		460.5,335 459.6,334.7 459.6,334.6 457.8,333.9 457.6,333.9 455,332.8 452.6,331.8 452.5,331.7 450.9,331 449.7,330.5 447.2,329.5 
		447.1,329.6 443.9,328.2 443.8,327.9 443.7,327.6 443.8,326.9 443.7,326.1 442.7,324.7 442,324 442.9,323.2 443,323.1 441.7,321.8 
		441.9,321.7 441.6,321.2 440.3,319.6 439.4,318.4 439,318 437.1,314.9 436.9,314.6 436.9,314.6 436.8,314.4 436.1,313.2 436,313.2 
		434.4,310.5 434,309.8 433.7,309.4 430.6,304 428.5,301.6 428.4,301.5 428.4,301.5 426.6,300.1 426.2,299.8 425.7,299.4 
		423.2,298.3 420,296.8 418.5,295.6 417.7,295 417.6,294.9 416.2,293.8 415.1,292.9 413.4,291.6 413.4,291.4 413.4,291.1 
		412.5,289.8 411.7,288.4 411.1,287.3 411.6,286.6 412.2,285.8 413.3,286.5 413.5,286.4 413.9,286.1 414,286 415.7,284.6 
		415.8,284.5 418.7,282.2 418.7,282.2 420.1,281.1 423.2,278.9 423.2,278.8 423.3,278.8 427.6,275.7 427.7,275.7 429.7,274.9 
		432.5,273.8 432.6,273.7 436.7,272 437.7,271.7 437.9,271.6 443.4,269.4 443.5,269.4 443.5,269.3 444.6,268.9 444.7,268.8 
		448.7,267.2 449,267.2 451.9,266.9 452.3,266.9 453.1,266.8 453.1,266.8 454,266.7 454.8,266.6 456,266.5 457.9,266.3 457.9,266.3 
		457.9,266.3 458,266.3 460.7,266 461.2,266 461.2,266 464.2,265.7 464.5,265.7 464.6,265.7 464.6,265.7 464.7,265.7 467.2,265.5 
		467.1,264.7 473.1,264.3 477.8,264 	"/>
</g>
<g id="용강동">
	<polygon class="st0" points="447.1,329.6 447.2,329.5 449.7,330.5 450.9,331 452.5,331.7 452.6,331.8 455,332.8 457.6,333.9 
		457.8,333.9 459.6,334.6 459.6,334.7 460.5,335 461,335.2 462.3,335.9 465.1,338 465.8,338.6 466.3,338.9 467.5,340 467.5,340 
		467.6,340.1 467.7,340.2 468.9,341.2 469.6,341.7 471.3,343.1 475,345.3 475.2,345.5 476.3,346.1 482.9,350.3 483.2,349.9 
		484.9,348.3 485.3,348.5 488.7,350.4 490.1,350.6 492.4,347.4 497,350.1 497.2,349.9 497.5,350.1 492.8,356.6 489.7,360 
		485.5,363.1 485.2,363.4 482.7,365.9 481.3,367.3 479.2,369.2 479.1,369.3 476.1,370.7 475.8,371 472.8,373.8 470.4,376 469.4,377 
		469.8,377.4 468.6,378.5 468.4,378.7 466.4,380.6 466.1,380.9 465.4,381.5 464.9,382 463.5,383.4 462.3,384.5 458,387.9 
		452.3,392.4 446.6,396.8 440.6,400.5 428.6,407.8 419.5,398.4 416.6,395.4 413.1,394.9 416.6,386.4 426.4,362.7 427.8,359.6 
		427.9,359.3 428.2,358.7 428.5,357.9 428.5,357.9 428.9,357.1 429.1,356.6 429.1,356.6 430,355.3 430.5,354.7 430.7,354.4 
		431.5,353.3 431.6,353.1 433.2,350.8 433.3,350.6 433.3,350.6 434.6,348.6 434.7,348.5 436,346.5 436.1,346.4 436.5,345.8 
		437.1,344.6 437.2,344.4 437.2,344.3 437.5,343.4 437.8,342.7 437.9,342.4 438,342.1 438.3,341.7 438.6,341.4 438.7,341.3 
		439.2,340.7 441.7,337 445.2,332.6 445.8,331.6 445.9,331.5 	"/>
</g>
</svg>
