<?xml version="1.0" encoding="utf-8"?>
<!-- Generator: Adobe Illustrator 21.1.0, SVG Export Plug-In . SVG Version: 6.00 Build 0)  -->
<svg version="1.1" id="layer1" xmlns="http://www.w3.org/2000/svg" xmlns:xlink="http://www.w3.org/1999/xlink" x="0px" y="0px"
	 viewBox="0 0 723.8 555.6" style="enable-background:new 0 0 723.8 555.6;" xml:space="preserve">
<g id="seoul">
	<polygon id="_x31_1080" points="365.7,153.6 369,159 372.9,165.8 374,171.2 374.5,176 380.2,183.2 378.7,187.8 378.5,191.8 
		380.1,193.7 379.6,196 381.3,200.4 380.6,204.3 366.4,210.9 364.4,214.9 370.1,219.4 379.1,220.4 382.9,225.7 391.8,227.8 
		400.4,226.1 407.3,225.4 407,231.6 411.9,238 415.7,241.6 416.4,247.3 418.3,250.1 422.9,247.9 425.4,248.7 428.8,247.3 
		433.8,251.4 435.6,256.1 436.3,257 439.3,254.8 442.6,254.8 449.9,250 457.6,242.2 463.9,235.1 465.4,227.8 469.8,227.1 
		472.2,217.1 477.5,215.5 481.4,217.5 483.5,217.5 488.3,209.4 493.6,207.2 502,206.6 504.2,206.8 509.5,197.9 514.7,198.1 
		523.7,192.2 524.4,189 522.9,184.5 521.5,181.5 518,182.6 514.9,183.3 509,183.4 507.1,179.8 502,176.6 497.5,172.7 488.4,162.6 
		487.4,163.5 483.5,166.5 482.1,170.8 476.7,176.7 470.2,182.5 468.7,185.9 453.5,194.7 454.5,188.2 449.8,187.3 441.9,189.7 
		432.3,182.4 428.2,182.8 421.8,179.7 416,175.2 413.7,167.9 414.3,163.2 407.2,161.4 399.5,158.2 395.9,152.4 392.2,149.9 
		390.1,146.6 386.1,145.7 381,141.4 374,134.9 363.5,140.7 361.4,143.9 360.7,143.7 361.7,150 	"/>
	<polygon id="_x31_1090" points="387.4,142.9 391.9,144 394.3,147.7 398.1,150.2 401.5,155.9 408.2,158.6 417.7,160.9 416.8,167.7 
		418.5,173.4 423.5,177.3 428.8,179.8 433.2,179.2 442.6,186.4 449.7,184.3 458,185.9 457.5,188.9 466.3,183.7 467.8,180.6 
		474.7,174.5 479.4,169.3 481,164.6 485.5,161.2 486.3,160.4 482,153.9 476.4,150.9 476.4,151 476,150.6 475.6,150.4 475.7,150.3 
		472.4,147.1 466.3,140.5 460.2,132.5 457.4,125.1 453.6,121 446.6,117.8 441,111 434.9,111 428.7,109.6 425.7,103.5 426.5,100.2 
		424.7,99.6 425.3,82.4 428,80.8 427.2,77.1 428.1,71.4 431.7,67.1 431.3,65 429.3,61 424.4,56.9 422.2,48.5 415.8,43.9 414.5,33.2 
		411.4,32.8 408.5,33.4 406.5,35.3 403.1,34.4 400.4,35 398,36.6 396.2,38.6 393.1,42.6 390.9,43.4 389.1,44.8 389.8,47.9 
		391.4,52.3 392.9,60.7 391.8,72.8 380.9,78.9 377.4,87.7 370.4,92.8 367.9,93.8 368,96.9 370.6,98.6 371.4,103.3 376.8,114 
		374.1,120.7 377.5,122.6 379,126.6 376.3,133 383,139.2 	"/>
	<path id="_x31_1120" d="M224.3,248.8l12.9,10.6l15.7-16.8l2.2-5.9l7,3.9l0.7,4.8l7.2-1l0.8-3.3l1.5-1.5l1.8-5.9l2.9,2.9l2.5-0.4
		l-0.3-3.1V228l5.9-6.6l8.6-5.3l4-0.7l3.1-1.1l1.2-1.8l-0.4-2.3l-1.6-4.5l3-2.7l2.2-3h4.1l1.4-2l3.4-4.5l3.5-0.8l2.4-0.8l0.5-3.6
		l0.5-4.9l-1.8-4.1l-0.2-6.9l-1.2-8.9l3.1-5.9l5-1l4.7-1l3.6-5.2h3.2l6.3-1.1l3.8-2.1l3-1.8l7.1-3.6l-0.1-0.6l-4.5-4.6l-1.4-7.1
		l-5.4-7l-6.4-4.1l-0.8-7.2l-3-2.4l-5.6-8.5l-5.8-4.9c-6.5-0.4-11.9-8.5-11.9-8.5L298.8,95l-3.1,6.5c-4.9,5.2-10,2.6-10,2.6
		l-14.6,10l-5.2,0.9c-7.6,5.5-17.9-4.8-17.9-4.8l-2.4-0.4l-0.6,1.4l-0.4,2l1.4,1.6l2.1,2.8l-0.1,2.2v2.2l0.6,1.4l1.4,3l0.4,1.6
		l-0.8,0.9l-0.4,3.4l0.4,1.5l0.5,1.5l-0.5,2.1l-2,1.2l-1.5,1.8l-2.5,3.2l-0.5,2.8l1.2,1.9l2.8,3.5l-0.2,4.2l-0.8,2.1l-2.2,2
		l-0.5,1.1l-0.1,2l0.9,1.6l0.6,1.4l-2.4,1.6l-1.9,2.4l-1.6,2.4l-2.6,2.8l-0.4,2.6l-0.9,4.5l-1.1,1.1l-0.1,1.9l1,1.9l1.2,2l0.6,3.8
		l-0.4,1.9l-1.1,0.8l-0.4,1.6l0.8,1.6l1,1.8l0.1,1.5l-1,1l-1.9,1.6l-0.2,3.2l1.5,3.6v1.6l-0.6,1.5l0.4,1.8l1.4,2l-0.4,2.5l-2.2,1.4
		l-1.8,2.2l0.1,5.1l0.5,2l-3.4,1l-3.1,0.4l-1-0.9l-2.9-0.2l-1.9,2.2l-1.5,0.4l-1.4-1.8h-1.9l-2.4,0.2l-1.2-1.1l-1.1-2.4l0.1-2.1
		l2.4-2.4l-0.9-1.5l-2.5-2.1l-1.8,1.2l-3,4l-2.1,1.8l11.4,11.1L224.3,248.8z"/>
	<polygon id="_x31_1140" points="180.2,269.3 190.2,276.2 197.1,281.6 206.4,288.4 215.3,294.3 223.5,300.9 230.4,307.5 238.9,313 
		247.1,319.5 257.5,326.8 262.9,328.6 269,327 275,326.1 282.2,326 286.7,328.7 292.5,331.5 295.2,330.6 300.1,331.4 303.3,335.4 
		308.4,344.3 308.4,344.2 309.4,344.6 309.4,344.6 313.5,344.3 319.7,344 321.8,342.5 328.7,335 332.5,329.8 334.6,324 337.4,322.1 
		341.1,316.8 340.7,314.7 340,310.5 339.3,304.7 342.1,301.2 338.8,299.3 334.7,300.5 329,301.1 323,302.1 306.3,303.6 299.4,305.6 
		294.6,305.5 284.8,300.5 278.2,297.3 279.1,291.9 280.5,288.8 277.6,286.6 261.7,280.7 260.1,278.1 244.9,270.1 236,262.8 
		236.3,262.5 222.4,251.1 212.2,242.3 200.5,231 198,233.2 197.2,238.2 192.6,241.6 192.4,244.4 194,245.3 194,248.7 193.2,249.3 
		192.2,252.8 189.2,254.2 183.5,256.4 175.4,258.8 170.1,262 171.2,262.7 	"/>
	<path id="_x31_1070" d="M572,169.6l-4.7,2.8l-6.7,4.1l-2.9-4.2l-3.1-3.8l-2.8,0.5c0,0-2.4,0.4-4.8,0.8c-1.2,0.2-2.4,0.4-3.3,0.5
		c-0.5,0.1-0.9,0.1-1.3,0.2c-0.4,0.2-1,0.5-1.7,0.8c-1.1,0.6-2.7,1.3-4.2,2c-2.7,1.3-5.5,2.6-6,2.9l-6.2,4.2l1.5,3.1l1.8,5.4v0.2
		l1.9,19l-4.4,7.5l0.5,10.3l1.3,7.4l3.9,5.5l6.6,12.4l1.9,7.2l-0.5,7l0.4,3.3l4.4,0.8l8.5,1l9.7-0.4l9.6-1.8l4.9-2.9l2.1-1.3
		l-0.1-2.9l0.6-1.2l2.6-3.9l0.9-2.1l0.2-2.5l1-1.1l2.6-1.4l2.4-1.8l3.4-1.8l1.2-3.9l1.1-4.6l1-4l2-4.5l1-2.5l3.2-2l1.8-1l1.8-1.6
		l0.4-2.4l-0.5-3.1l-1.5-3.2l-1.6-2.4l0.9-1.9l2-2.8l2.4-2.8l0.6-2.8l0.2-5.1l-0.6-2.5l-1.8-2.9l-0.2-1.6l1.4-1.9l-0.4-3.5l-0.1-4.5
		l-0.2-3.8l-0.2-2.1l-3.1-2.9c0,0-4.1-1.6-4.5-1.8s-4.2-1.2-4.2-1.2l-5.8,0.6l-2.4-0.7l-6.8,2.6L572,169.6z"/>
	<polygon id="_x31_1100" points="418.7,42.2 424.8,46.6 427.1,55.2 431.7,59.1 434.2,64.1 434.8,68 430.9,72.7 430.3,77 431.5,82.3 
		428.2,84.2 427.8,97.5 430,98.4 428.8,103.1 430.8,107 435.4,108 442.5,108 448.4,115.3 455.4,118.6 460.1,123.5 462.8,131.1 
		468.6,138.6 474.6,145.1 476.3,137.4 481.1,130.3 479.9,126.9 484.3,124.2 486,120.6 490.5,117.3 495.5,123.1 495.8,119.9 
		496.8,116.6 496.8,114.4 494,109.5 493.3,102.6 493,94.5 488.8,86.7 488,76.5 483.4,68.1 485.8,55.1 488,48.2 489.3,39.4 
		489.5,31.5 489.8,27.1 489.9,25.9 489.2,24 489.1,20.9 488.6,18.2 487.5,15.3 485.8,12 484.4,12.4 482.6,13.8 480.5,15.2 
		478.6,14.2 477,12.3 474.5,10.3 473.1,10.9 470.1,13.2 468.4,15.7 465.6,16.9 461.1,17.4 460,19.4 458.1,19.9 457.2,18.4 
		456.4,15.9 455.6,13.4 454.1,9.3 452.8,6 450.2,2.7 446.6,0.9 442.8,0 438.2,1.4 430.1,3.2 425.9,4.6 421.9,5.7 419.2,7.9 
		417.2,12.2 416.4,15 415.8,18.6 414.6,22.6 415,24.4 416.5,26.8 417.6,29.6 417,30.9 417.2,30.9 	"/>
	<path id="_x31_1110" d="M492.5,31.6l-0.3,8.1l-1.3,9.3l-2.2,6.9l-2.1,11.6l4.4,8.1l0.8,10.2l4.3,7.8l0.3,8.8l0.7,6.1l2.8,5.1v3.3
		l-1,3.6l-0.8,9.9l-7.9-9.2l-1.6,1.2l-1.8,3.8l-3.1,1.9l0.9,2.6l-5.3,7.9l-2.1,9.2l7,3.8l5,7.3l0.1-0.1l10.6,11.7l4.2,3.6l5.5,3.5
		l1.4,2.6l3.9-0.1l2.5-0.6l5.2-1.7l6.7-4.5c3.7-1.8,8.9-4.3,11.1-5.3v-0.2l2.7-0.9l0.1,0.2c1.9-0.3,5.7-0.9,8.3-1.3l4.5-0.8l4.4,5.3
		l1.3,1.9l4.3-2.6l5.3-3.2l7.1-0.8l3.3-1.3l1.4-0.5l1.2-1.6l0.1-3.5l1.2-2.5l0.8-1.6l1.4-2.1l3.2-2l2.1-2.1l1.2-2l1.4-1.8l0.8-5.6
		l0.2-2.1V133l-0.2-3.9l-0.2-3.8l-1-3.2l-2.6-2.9l-4.8-3.4c0,0-5.2-2.2-5.6-2.2s-2.9-0.4-2.9-0.4l-2.6,0.2l-2.9,0.5l-3.2,0.5
		l-4.2-0.2l-2.1-3.9l-2.2-3l1.1-0.8l0.8-2.1l0.6-1.8l0.5-2.2l-1-4.5l-2.4-1.2l0.1-2.4l-0.8-2l-0.1-3.5l0.5-1.4l1.2-1.8l1.4-1.8
		l1.9-2.5l-0.5-2.5l-0.4-5l0.9-1.1l0.9-2l1-2.5l0.5-2.2v-2.2l-1.8-3.1l-2.1-2.5l-0.2-2.4l-0.6-2.5l-0.9-1.8l-1.5-2.2l-0.2-2.9
		l1.4-2.2L564,40l1.6-2.9l2.5-3.4l0.4-2.4l-0.5-3.8l-1-2.6l-2.8-1.1l-3.2-1.4l-3.1,0.5l-4-0.9l-3.1-1.4l-1.8-3.2l-0.5-1.8l-1.9-3.5
		l-3-3.8l-4.5-0.5L536,8.6l-2.5,0.5l-4.1,2l-2.1,1.1l-3.2,0.5l-3-0.2l-2.9-0.6l-5.4-1.1l-2.9,0.6l-0.5,1.6l-1,2.4l-2.1,2.8l-3.8,2.4
		l-2.5,1.8l-2.2,1.2l-2.2,0.5l-2,1.8l-0.2,1.5L492.5,31.6z"/>
	<polygon id="_x31_1050" points="572.4,271.4 561.9,273.3 551.9,273.7 543.1,272.7 539.8,272.1 536.6,278.6 530.6,289.9 
		529.2,292.6 531.4,293.7 530.7,298.2 530.6,298.4 523.5,313.3 510.9,340.2 507.1,349.1 511.9,351.6 523.2,356.2 538.5,360.2 
		543.1,360.1 550.3,359.8 559,356.4 565.8,346.7 574.4,340.2 581.8,331.9 588.2,324.1 591.7,321.5 594.2,317 595.8,310.9 
		599.8,299.7 602.3,295.9 601.7,295.6 599.9,293 596.8,291.6 594.1,293.4 591.4,295.3 586.8,299.2 585.1,297.8 582.9,295.6 
		579.6,293.3 579.5,291.2 580.4,286.9 581.8,281.4 582.9,275.7 583.8,271.7 583.1,268.6 580.9,266.6 580.5,266.5 577.8,268.2 	"/>
	<polygon id="_x31_1130" points="346.3,288.4 346.5,283.4 350.2,279.7 349.9,276.9 346.8,276 338.7,273.6 328.5,264.2 324.6,256.3 
		331,252.1 330.2,248.7 330.5,243.5 333.4,239.8 330.8,236.4 329.7,229.8 331.1,227 332.3,222.2 332.9,218.8 328.5,214 323.4,215.5 
		322.7,205.4 324.7,202.5 319.9,195.2 318.2,195.8 315.7,196.3 313,199.9 310.8,203.1 306.6,203.1 305,205.2 303.4,206.7 
		304.5,209.7 305.1,213.3 302.6,216.9 298.3,218.4 294.7,219.1 287,223.8 282.2,229.2 282.2,233 282.8,238.7 276,239.9 275.5,239.5 
		275,241.3 273.5,242.7 272.4,247.1 260.2,248.8 259.3,242.6 256.6,241.1 255.5,244.3 239.3,261.6 246.7,267.7 262.2,275.8 
		263.7,278.2 279.1,284 284.2,287.8 282,292.7 281.5,295.6 286.1,297.8 295.4,302.5 299,302.6 305.9,300.6 322.6,299.1 328.6,298.2 
		334.2,297.5 339.2,296 340,296.5 342.3,292.4 	"/>
	<polygon id="_x31_1030" points="324.4,356.5 325.8,362.5 327.9,368.6 330.4,370.4 334.6,371.7 337.5,373 341.7,375.1 343.9,376.6 
		352.2,379.7 361.5,383.6 371.3,386.6 376.8,386.9 381.9,384.3 389.4,379.7 399.5,373.2 405,370.1 407.1,365.6 412.1,360.1 
		416,357.1 423.1,353.5 427.3,345.8 430.8,340.8 427.9,339.4 423.6,340.5 418.7,339 416.7,333.6 416.5,328.5 414.3,326.4 
		411.6,322.9 411.1,318.7 407.3,316.4 401.9,318.2 396.9,320.8 391.6,320.8 389.2,314.7 385.9,311.4 374.7,307.7 367.9,308.5 
		365.6,306.8 361.3,307.1 357,308.6 353.6,312.2 350.7,307.6 348.2,305.1 344.6,302.8 342.4,305.6 343,310.1 343.6,314.2 
		344.3,317.5 339.6,324.2 337.1,325.9 335.2,331.2 330.9,337 323.7,344.9 320.7,346.9 316,347.2 318.3,348.1 	"/>
	<polygon id="_x31_1190" points="254.4,427.2 267.3,423.5 269.9,418 272.9,406.4 276,395.8 279.1,389.5 278.7,385.6 292.7,382.7 
		302,380.3 307,378.8 295.2,366.2 287.5,357.1 281.4,355.3 275.2,354.6 270.4,351.9 268.4,350.2 254.7,348.4 249.7,351.5 
		244.8,348.9 242.1,342.7 221.1,326 209.6,317.5 202.1,314.7 197.7,309.4 196.6,309.5 198,313.2 201.4,319.6 201.5,319.5 
		207.7,326.8 212.1,335.6 216.5,347.3 215.4,354.5 210.3,360.3 204.5,363.7 201.5,365.8 199.5,369.7 200.1,374.1 202.5,379.6 
		201.7,386.5 210.7,391.5 217.9,394.9 224.1,401.5 224.5,409.1 224.5,419.1 224.8,424.5 228.1,434 231.6,443 236.5,448.8 
		239.4,449.7 245.4,440.9 	"/>
	<polygon id="_x31_1240" points="629.7,372.5 615,367.2 606.5,363.1 606.5,356.3 612.6,347.3 613.4,340.8 611.3,337.2 602.3,332.2 
		599.3,339.2 589.7,355.5 586.6,363.5 583.4,365.6 578.8,371.5 573.4,372.5 568.5,377 561.1,380.9 548.8,384.3 539.9,385 
		529.9,382.3 522.3,383.2 521.9,385.8 524.1,398.2 525.4,407.3 529.3,413.5 536.4,415.7 549.4,419 575,426.8 589.5,437.1 
		597.9,451.7 607.9,466.3 614,474.7 620.1,485.5 620.5,485.7 620.5,483.4 622.5,482.7 625.1,485.4 631.8,486 634.6,485.7 
		640.9,484.3 641.5,483 638.9,479.9 634.2,479 630.1,475.7 629.9,470.2 633.1,468 642,472.9 645.6,472.8 658.1,463.4 659.4,460.8 
		661.5,456.8 663.4,453 663.9,449.9 667.1,449.3 670,446.3 670.4,443.2 680.2,434.7 680.4,426.4 681.4,425.4 681.6,421.4 
		682.9,420.3 681.9,416.3 679.6,414.7 677.4,410.2 675.5,410.4 674.4,412.3 672.2,411.4 670.9,408.3 665.4,403.7 663.8,405.7 
		662,408.4 656.2,410.2 648.9,406.7 648.6,404 647.9,401.8 646.2,398.7 648.4,391.4 651.1,389.4 650.5,386.2 652.4,385.6 
		645.2,379.1 	"/>
	<polygon id="_x31_1160" points="105.3,329.5 107.7,323 110.7,319.5 114,323.4 115.2,328.7 114.6,329.9 117.7,331.8 121.7,333.8 
		122.8,340.1 122.8,345.1 125.7,350.6 128.7,357.8 131.8,363.2 169.6,357.2 170.2,350.9 169.1,344.2 171.2,340.7 171.2,335.6 
		166.7,329.5 167.9,323 169.6,317.5 172.4,311.6 181.4,317.5 187.7,320.9 195.1,320.3 198.1,319.7 195.3,314.3 193.7,310.4 
		184.7,302.6 171.4,292.7 152.8,279.4 139.5,270.4 130.3,263.8 111.8,255.7 95.4,243.9 83.9,234.1 73.5,221.8 66.2,211.9 
		60.4,207.4 60.4,207.9 59.6,209.2 58.1,210.2 56.8,211.6 56.4,219.2 59.1,224 60.4,226.7 61.6,229.3 61.8,232.8 61.2,237 59,238 
		56.4,241.4 53.8,245.2 53.5,247.3 51.9,249.9 49.4,253.9 49.1,259.2 48.5,257.8 48.2,256.3 46.6,255.3 45.1,257.3 42.6,259.7 
		40,261.7 36.5,264.4 31.2,267.3 31.1,270.2 29.8,270.3 28.4,273 30,274.7 30.9,276.2 28.6,276.6 26,279.2 24.1,278.9 21.9,277.8 
		20.2,279.3 19.9,281.6 21.2,283.4 23.2,288.7 23.6,294.6 22.8,293.3 20.5,291.7 18.6,293.6 15.6,298.8 14.1,300.2 9.8,299.7 
		6.5,300 3.4,301.8 0.2,304.2 0,305.9 13.2,320 19.5,319.9 26.9,326 40.2,326.6 46.2,330.9 46.8,334.7 48.5,335.3 50.5,335.9 
		50.9,337.4 49.4,338.3 48.9,341 50.5,342.9 51.6,347.6 53,347.8 61.6,341.8 62,340.4 64.4,337.7 67,335.2 69.2,333.6 72.1,331.7 
		75.6,331.6 76.2,332.6 77.5,334.8 79.9,336 83.1,337.3 98.4,337 98.6,339.5 102.4,334.3 	"/>
	<polygon id="_x31_1150" points="111.3,401 116.1,401.9 116.5,406.9 120.4,411.4 122.9,413.9 125.8,412.2 129.9,408.7 132.7,405.3 
		136.5,403.2 140.2,399.9 145.3,400.6 148.3,398.4 153.9,396.8 157.3,399.2 161.6,398.1 165.5,403.6 174.8,399.3 172,408 
		172.8,409.4 175,408.9 179.9,409.9 182.6,408.9 184.8,404.5 190.8,397.2 198.6,387.9 199.5,380 197.2,374.9 196.5,369.2 
		199.2,363.8 202.9,361.2 208.4,358 212.6,353.1 213.5,347.6 209.3,336.7 205.1,328.3 200,322.4 195.5,323.3 187,324 179.8,320.1 
		173.6,316 172.4,318.7 170.8,323.8 169.9,328.8 174.2,334.6 174.2,341.5 172.2,344.8 173.2,350.7 172.4,359.8 130.2,366.4 
		125.9,359 123,351.8 119.8,345.8 119.8,340.3 119,335.8 116.2,334.4 110.7,331 112.1,328.3 111.3,324.8 110.7,324.1 110.3,324.6 
		108,330.9 104.9,336 98.9,344 98.8,344 98.9,349.4 102.6,354.4 103.1,356.8 104.4,358.4 106.8,359.6 108.9,360.6 109,366.2 
		106.6,368.3 105.4,371.4 104.8,376.7 104.1,382.6 102.6,385.4 101.2,386.8 101.2,390.2 102.8,390.8 103.5,392.2 104,395.9 
		102.2,395.8 101.4,398.6 102,401.2 102.7,401.5 102.8,400.3 	"/>
	<polygon id="_x31_1220" points="562.7,500.6 560.3,491.6 556.4,487.7 554.2,482.5 548.8,479.3 549.3,472 548.9,472.2 543,474 
		538.1,472.8 536.3,474.7 530.1,479.5 520,483.3 508.7,486 500.7,485.9 494.5,484.8 485.4,474 480.3,466.8 475.4,451.9 470.1,453.3 
		461.9,453.7 458.9,443.6 453.9,431 445.9,412.6 440.9,398.3 435.9,385.1 433.3,373.7 429.6,370.9 425.3,373.6 420.9,379 
		417.8,383.6 414.6,383.6 412.6,388 407.5,393.4 400.8,395.8 390.8,405.8 384.5,407.7 377.7,407 373.3,406.7 370.2,410.5 374,413.7 
		379.4,418.4 379.9,423.6 376.2,425.7 376.5,433.5 375.8,444.3 374.2,449 374.2,458.2 373.6,465.7 375.4,477 378.5,482.8 385.5,488 
		385.8,496.5 385.2,503.9 385.2,507.8 386.4,506.9 394.5,500.2 398.4,499.7 401.5,495.9 401.2,493.6 399.1,490.7 399.6,489 
		410,489.4 410.9,492.6 414.5,500.9 420,508.9 431.9,515.8 434,513.8 433.9,511.3 436.1,510.6 437.9,512.7 440.1,512.6 443.5,511 
		451.9,504.6 452.8,500.3 457.9,492 459.9,492.3 464.2,495.7 463.5,497.7 462.5,503.2 465.1,506.3 466,509.6 467.5,511.4 
		463.4,515.2 464.1,518 468.4,523.8 469,526.2 466.8,527.6 467.2,530.7 469.5,531.7 470,533.8 467.8,536.9 464.8,541.8 465.6,546.9 
		469.6,547.9 474.9,549.3 478.9,553.6 486.5,554.8 527.8,554.4 532.8,549.8 533.6,547.8 529.8,545.2 529.5,540.4 538.6,540.2 
		542.1,542.4 547.1,541.9 551.5,535.2 555.9,534.9 557.9,531.7 558.2,522.9 561.1,519.4 561.1,517 562.6,516.7 567.6,511.9 
		569.1,509.4 569.4,505.4 569.4,505.3 566.2,503.7 	"/>
	<polygon id="_x31_1230" points="611.4,476.3 605.5,468 595.4,453.2 587.2,439.2 573.7,429.5 548.6,421.9 535.6,418.6 527.4,416.1 
		522.6,408.3 521.2,398.7 518.8,385.8 519.4,382.3 516.3,379.3 512.1,376 501.6,368.8 494.9,361.8 481.8,359.2 470.8,355.2 
		461.6,352.3 452.5,350.4 447.2,352.7 443,357.6 435.8,364.5 432.1,369.1 436,371.9 438.8,384.4 443.7,397.3 448.7,411.6 
		456.7,429.9 461.8,442.7 464.1,450.6 469.8,450.3 477.3,448.3 483,465.4 487.9,472.2 496.1,482.1 501.1,483 508.5,483 519.2,480.4 
		528.6,476.8 534.3,472.3 537.2,469.5 543,470.9 547.9,469.4 552.7,467.6 551.9,477.7 556.5,480.4 558.9,485.9 563,490 565.3,499 
		567.8,501.2 569.6,502.1 569.6,501.8 574.2,498.6 577.9,498.6 585.4,498.2 593.2,498.4 599,500.3 604.5,505.7 606.8,505.7 
		608.4,503.9 609.5,501.6 611.1,496.2 614.9,495 620.4,490 620.4,489.4 617.9,487.5 	"/>
	<polygon id="_x31_1210" points="382.8,496.4 382.5,489.6 376.2,484.8 372.6,477.9 371.1,468.8 365.4,469.6 355.1,470.3 
		340.1,455.7 342,452.3 340.9,449.3 337.8,438.6 338.4,434.5 336.6,433.3 333.5,435.3 333.5,439 325.5,439 313,435.4 306.6,437.6 
		301.2,438 294.6,439.3 287,437.1 284.4,432.7 282.6,434.7 279.7,440.1 270.7,442.3 263,443.9 257.8,448.4 250.2,451.5 241.1,454.6 
		240.9,454 237.6,460.3 246.4,457.2 251.8,459.8 252.1,464.9 257.5,467.9 257.5,475.4 251.5,478.5 253,483 257,487.7 261.6,490.8 
		260.9,495.4 262.2,500.8 261,505.5 264.4,507.9 273.3,506.5 281.8,518.2 285.8,522.5 286.1,529.6 286.9,531.9 293.6,538 
		299.1,543.7 298.9,550 300.6,552 305.4,553.3 307,551.3 309.6,550.6 313.2,550.7 313.8,549.3 319.2,547.8 322.1,546 324.5,547.2 
		331.4,547.2 335,546.7 337.5,544 343.4,543.8 344.4,541.9 345.6,539 346,534.9 347.9,532.9 355,530.8 361.4,529.9 363.9,528.7 
		364.9,525.3 368,521.3 372.8,516.9 375.2,513.8 375.4,510.3 379.1,509.8 382.2,509.4 382.2,503.7 	"/>
	<polygon id="_x31_1180" points="279.5,520 272,509.8 263.6,511 257.6,506.8 259.1,500.8 257.8,495.5 258.4,492.2 255,489.9 
		250.3,484.6 247.8,477.1 254.5,473.6 254.5,469.7 249.2,466.7 248.9,461.8 246.2,460.4 235.5,464.2 235.5,464.2 234.4,466.2 
		231.3,465.3 221.3,467.1 210.4,459.3 199.1,449.9 189.5,449 189.6,447.8 189.1,447.9 185.8,447.6 185,449 186,449.8 186.5,456.6 
		189.6,462.3 189.6,465.2 193.2,471.7 206.8,489.8 206.5,491.3 204.8,491.2 203.5,491.9 203.4,493.8 208.5,498.6 212.9,498.9 
		212.5,500.4 209.6,500.8 208.4,502.9 209.2,504.7 210,510.9 211.1,511.7 212.9,513.8 215.4,517.2 217,520 219,520.2 224.8,525.9 
		224.6,529.9 226.1,531.6 229.4,536.7 231,540.8 231.8,547 231.9,554.9 254.6,555.6 254.9,553.9 256.2,550.3 258.2,547.2 
		262.1,546.2 267.6,545.9 269,545 272.5,539.4 275,534.2 277.8,531.4 281.6,527.4 283,526.5 282.9,523.7 	"/>
	<polygon id="_x31_1250" points="722.8,308.6 717.6,305.4 717.5,302.7 717.4,296.4 717.4,291.8 715.8,287.7 713.8,284.7 
		713.2,280.9 714.2,276.7 713,273.4 710.6,268.3 706.8,261.4 704.2,254.6 705.6,252.2 703,250.3 700,251.9 697.5,253.4 696.6,252.4 
		695.5,252 689.5,257.1 685.4,263.3 677.4,267.1 669.8,271.4 662.8,277.1 658.7,279.7 649.3,279 641.2,279.3 636.6,280.2 
		623.8,288.5 613.7,305.8 603.5,329.4 613.4,335 616.6,340.1 615.4,348.3 609.5,357.3 609.5,361.2 616.2,364.4 630.8,369.7 
		646.8,376.5 654.6,383.5 654.6,379.6 659.6,375.8 661.4,365.7 668.9,358.2 669,354.7 669.9,352.4 672.4,351.4 673.4,348.8 
		672.9,346.7 673.8,345.7 675.1,344.7 675.9,342.3 674.5,341.7 674.1,339.2 675.1,338 677.6,333.7 684.9,324.9 687.1,324.8 
		687.8,326.7 691.1,325.7 697.8,324.7 699.5,324 705.9,324.9 706.5,323 707.4,321.3 712.9,320.3 715.5,321.8 719.5,324.2 
		719.5,322.6 718.5,319.3 718.2,316.3 719.9,313.9 722.2,313.3 723.8,311.8 	"/>
	<polygon id="_x31_1170" points="212.2,456.9 222,463.9 231.4,462.3 232.9,462.7 238.3,452.5 234.8,451.4 229,444.6 225.3,435 
		221.8,425.1 221.5,419.2 221.5,409.1 221.2,402.8 216.1,397.4 209.4,394.2 201,389.6 187.3,406.3 184.7,411.3 180.1,413 175,412 
		171.2,412.8 168.7,408.3 169.8,404.9 164.5,407.3 160.4,401.5 156.7,402.4 153.4,400.1 149.7,401.2 146,403.7 141.2,403 
		138.1,405.8 134.7,407.6 132,410.9 127.4,414.8 122.4,417.7 118.2,413.4 113.5,408.1 113.3,404.4 110.8,404 103.4,403.4 100.1,405 
		99.6,410.6 99,413.8 96.1,416.7 94.1,419 93.2,421.6 90.9,422 88.8,423.3 84.8,423.2 83.4,425.7 82.9,428.9 84.1,431.9 85.8,434.3 
		85.5,437.2 89.1,440.4 90.9,441.6 93.4,440.9 94.5,440 97.4,440.9 100.6,442.9 101.4,445.9 99.4,447.6 94.5,450.3 94.1,451.8 
		94.9,456.2 95.2,461.7 94.6,464.3 90.8,465 89,467.3 88.1,471 86.9,470.9 86.1,473.3 88,474.7 90.6,477.2 93.2,477.6 95.5,475.7 
		95.8,474.3 97.1,471.4 98.9,470.8 100.1,472.9 102.1,472.9 102.6,471.3 105,470.9 106.8,473 109.8,473 111.1,471.6 115.8,468.7 
		117,469.2 119.8,470.6 121.2,472.9 124.5,472.4 125.1,471.2 127.2,471.4 129.9,470.3 133.8,470.8 138,475.7 143.2,475.9 
		143.9,473.3 141.6,472.4 141.1,470.6 143.6,468.4 143.4,463 144.8,459.2 151.9,459.9 157,455.6 157,453.2 158.8,451.9 162,451.6 
		163.2,449.7 167.1,445 169.8,441.4 173.5,439.7 178.4,436 180.5,436.7 187,440.7 187.1,444.8 188.6,445.4 190.2,445.4 190.9,444.4 
		192.1,444.8 192,446.2 200.3,447 	"/>
	<polygon id="_x31_1200" points="361.6,407.3 359.4,408.9 352.2,404.8 344.9,400.1 316.1,385.3 313.7,385.6 304,388.9 295,391.3 
		287.3,393 281.5,391.5 278.7,397 275.8,407.2 272.7,419.1 269.4,426.1 256.3,429.8 247.9,442.6 242,451.2 249.2,448.7 256.2,445.8 
		261.6,441.1 270,439.3 277.7,437.5 280.2,432.8 284.9,427.6 289,434.5 294.7,436.3 300.9,435 306,434.6 313,432.2 325.9,436 
		330.5,436 330.5,433.6 336.7,429.7 341.6,433.1 340.9,438.4 343.8,448.4 345.3,452.6 343.9,455.2 356.2,467.3 365.2,466.6 
		370.6,465.9 371.2,458.1 371.2,448.6 372.8,443.5 373.5,433.4 373.1,423.9 376.8,422 376.6,419.9 372,415.9 365.7,410.6 	"/>
	<polygon id="_x31_1010" points="322,178.8 323.9,183.1 323.3,188.8 322.6,193.8 328.3,202.6 325.8,206.2 326.1,211.6 329.5,210.6 
		336.1,217.8 335.2,222.9 333.8,228.2 332.8,230.3 333.7,235.2 337.1,239.8 333.5,244.6 333.3,248.4 334.5,253.5 328.4,257.3 
		331,262.4 340.3,271 347.7,273.1 352.6,274.7 352.9,276.7 358.7,274 369.9,274.1 381.1,275.5 390.1,275.3 394.6,273.2 401.1,270.2 
		408.9,272.5 417.8,271.6 422,270.8 430.4,271.8 436.9,272.7 442.3,269.5 442.3,257.8 440.2,257.8 435.7,261.1 432.9,257.5 
		431.2,253.2 428.2,250.8 425.6,251.9 423.1,251.2 417.2,254 413.6,248.3 412.8,243 409.5,239.9 404,232.5 404.2,228.7 400.7,229 
		391.7,230.8 381.1,228.4 377.4,223.2 368.9,222.2 360.6,215.7 364.1,208.7 377.9,202.3 378.2,200.7 376.4,196.1 376.9,194.4 
		375.5,192.8 375.8,187.1 376.8,183.9 371.5,177.1 371,171.5 370.1,166.8 366.5,160.5 363.3,155.5 358.8,151.6 357.9,145.1 
		351.7,148.3 348.8,150.1 344.5,152.4 337.3,153.6 335.6,153.6 332.2,158.5 326.3,159.8 322.7,160.5 320.7,164.2 321.8,172.4 	"/>
	<polygon id="_x31_1060" points="455.8,273 460.8,271 466.5,267.6 472.5,266.8 478.9,266.8 490.7,273.1 496.2,279.9 506.2,285.7 
		518.6,290.6 526.8,290.8 527.9,288.5 533.9,277.2 536.7,271.5 536.4,271.5 535.7,265.7 536.2,258.9 534.5,252.4 528.1,240.5 
		524,234.6 522.5,226.2 522,214.9 526.3,207.5 525.1,194.9 515.6,201.1 511.2,201 505.8,209.8 502,209.6 494.4,210.1 490.4,211.8 
		485.2,220.5 480.6,220.5 477.2,218.7 474.8,219.5 472.2,229.8 467.9,230.5 466.7,236.5 459.8,244.3 451.7,252.4 445.3,256.6 
		445.3,268.7 451.8,272.4 	"/>
	<polygon id="_x31_1020" points="430,274.8 422,273.8 418.2,274.5 408.6,275.6 401.4,273.4 395.9,275.9 390.9,278.3 380.9,278.6 
		369.7,277 359.3,277 353.2,279.8 353.3,280.9 349.5,284.7 349.2,289.7 344.7,294.2 342.6,298 346.6,300.4 346.5,300.5 350.2,302.9 
		353.1,305.8 354.1,307.4 355.3,306 360.7,304.2 366.4,303.8 368.7,305.4 375,304.6 387.5,308.8 391.8,312.9 393.7,317.8 
		396.1,317.8 400.9,315.4 407.7,313.2 413.9,316.9 414.4,321.7 416.2,323.9 422.2,318.1 425.8,313.9 429.3,311.3 430.5,308.9 
		431.4,301.4 437,297.7 440.4,297.5 441.8,293.1 445.8,287.5 446.3,286 442.9,283.2 442.4,272.9 437.6,275.9 	"/>
	<polygon id="_x31_1040" points="525.3,293.7 517.9,293.5 504.7,288.3 494.3,282.2 488.8,275.5 478.1,269.8 472.6,269.8 
		467.5,270.5 462.1,273.7 456.2,276.1 450.7,275.2 445.4,272.2 445.8,281.7 449.7,284.9 448.5,288.8 444.5,294.5 442.6,300.4 
		438,300.6 434.2,303.2 433.5,309.7 431.7,313.3 427.7,316.2 424.4,320.2 418.3,326 419.5,327.1 419.7,333 421,336.6 423.7,337.4 
		428.1,336.2 432.3,338.3 434.9,333.2 439,329.1 450,329 455.2,329.3 467.1,334.2 479.5,338.9 493.8,343.9 500.6,345.6 504.4,347.7 
		508.1,339 520.8,312 527.8,297.4 528.1,295.4 525.3,293.8 	"/>
</g>
</svg>
